<svg width="20" height="22" viewBox="0 0 20 22" fill="none" xmlns="http://www.w3.org/2000/svg">
<path d="M8.59177 0.495169C8.98896 0.174968 9.48656 0 10 0C10.5134 0 11.011 0.174968 11.4082 0.495169L19.1582 6.71401C19.4219 6.92679 19.6343 7.19461 19.7799 7.4981C19.9254 7.80158 20.0006 8.13313 20 8.46873V19.7491C20 20.9921 18.9929 21.9994 17.75 21.9994H14.75C13.5071 21.9994 12.5 20.9921 12.5 19.7491V14.3286C12.5 13.9147 12.1647 13.5789 11.75 13.5789H8.25C7.83588 13.5789 7.5 13.9147 7.5 14.3286V19.7497C7.5 20.9927 6.49294 22 5.25 22H2.25C1.00765 21.9994 4.02167e-06 20.9921 4.02167e-06 19.7491V8.46873C-0.000633626 8.13313 0.074562 7.80158 0.220147 7.4981C0.365732 7.19461 0.578063 6.92679 0.841768 6.71401L8.59177 0.495169ZM10.4694 1.66518C10.337 1.55852 10.1711 1.50024 10 1.50024C9.82887 1.50024 9.66302 1.55852 9.53059 1.66518L1.78059 7.88344C1.69266 7.95443 1.62187 8.04377 1.57334 8.145C1.52481 8.24622 1.49976 8.35681 1.5 8.46873V19.7491C1.5 20.1636 1.8353 20.4994 2.25 20.4994H5.25C5.66412 20.4994 6 20.1636 6 19.7491V14.3286C6 13.0863 7.00765 12.0789 8.25 12.0789H11.75C12.9924 12.0789 14 13.0863 14 14.3286V19.7497C14 20.1642 14.3353 20.5 14.75 20.5H17.75C18.1641 20.5 18.5 20.1642 18.5 19.7497V8.46873C18.5003 8.35688 18.4753 8.24635 18.4268 8.14521C18.3782 8.04406 18.3074 7.95483 18.2194 7.88402L10.4694 1.6646V1.66518Z" fill="#DB66E4"/>
</svg>
