<svg width="12" height="12" viewBox="0 0 12 12" fill="none" xmlns="http://www.w3.org/2000/svg">
<path d="M4.869 11.5569C4.811 11.4891 4.563 11.2331 4.359 10.9946C3.076 9.59649 0.976 5.94915 0.335 4.04014C0.232 3.75022 0.014 3.01724 0 2.62562C0 2.25037 0.072 1.89265 0.218 1.55129C0.422 1.12577 0.743 0.784413 1.122 0.59737C1.385 0.476961 2.172 0.289917 2.186 0.289917C3.047 0.102874 4.446 0 5.992 0C7.465 0 8.807 0.102874 9.681 0.256016C9.695 0.273551 10.673 0.460594 11.008 0.665173C11.62 1.04043 12 1.7734 12 2.55782V2.62562C11.985 3.13648 11.605 4.21081 11.591 4.21081C10.949 6.01695 8.952 9.58013 7.625 11.0122C7.625 11.0122 7.284 11.4155 7.071 11.5908C6.765 11.8644 6.386 12 6.007 12C5.584 12 5.19 11.8469 4.869 11.5569Z" fill="#DB66E4"/>
</svg>
