<svg width="313" height="340" viewBox="0 0 313 340" fill="none" xmlns="http://www.w3.org/2000/svg">
<g filter="url(#filter0_d_90_1256)">
<rect x="4" width="305" height="332" rx="15" fill="white"/>
</g>
<g filter="url(#filter1_d_90_1256)">
<path d="M157.105 104.432C156.752 104.382 156.298 104.382 155.895 104.432C147.022 104.13 139.963 96.87 139.963 87.9462C139.963 78.8208 147.324 71.4096 156.5 71.4096C165.625 71.4096 173.037 78.8208 173.037 87.9462C172.986 96.87 165.978 104.13 157.105 104.432Z" fill="#DB66E4" stroke="#DB66E4" stroke-width="1.5" stroke-linecap="round" stroke-linejoin="round"/>
<path d="M190.481 137.707C181.507 145.925 169.608 150.917 156.5 150.917C143.392 150.917 131.493 145.925 122.519 137.707C123.023 132.968 126.048 128.33 131.443 124.7C145.257 115.524 167.844 115.524 181.557 124.7C186.952 128.33 189.977 132.968 190.481 137.707Z" fill="#DB66E4" stroke="#DB66E4" stroke-width="1.5" stroke-linecap="round" stroke-linejoin="round"/>
<path d="M156.5 150.917C184.344 150.917 206.917 128.344 206.917 100.5C206.917 72.6557 184.344 50.0833 156.5 50.0833C128.656 50.0833 106.083 72.6557 106.083 100.5C106.083 128.344 128.656 150.917 156.5 150.917Z" stroke="#DB66E4" stroke-width="1.5" stroke-linecap="round" stroke-linejoin="round"/>
<circle cx="217" cy="146" r="5" fill="#DB66E4"/>
</g>
<g filter="url(#filter2_d_90_1256)">
<circle cx="195" cy="42" r="5" fill="#DB66E4"/>
</g>
<g filter="url(#filter3_d_90_1256)">
<path d="M82.9631 191.545V209H79.8267V194.17H72.1903V209H69.054V191.545H82.9631ZM92.0789 209.256C90.8005 209.256 89.6925 208.974 88.755 208.412C87.8175 207.849 87.0903 207.062 86.5732 206.051C86.0618 205.04 85.8062 203.858 85.8062 202.506C85.8062 201.153 86.0618 199.969 86.5732 198.952C87.0903 197.935 87.8175 197.145 88.755 196.582C89.6925 196.02 90.8005 195.739 92.0789 195.739C93.3573 195.739 94.4653 196.02 95.4028 196.582C96.3403 197.145 97.0647 197.935 97.5761 198.952C98.0931 199.969 98.3516 201.153 98.3516 202.506C98.3516 203.858 98.0931 205.04 97.5761 206.051C97.0647 207.062 96.3403 207.849 95.4028 208.412C94.4653 208.974 93.3573 209.256 92.0789 209.256ZM92.0959 206.784C92.7891 206.784 93.3687 206.594 93.8346 206.213C94.3005 205.827 94.6471 205.31 94.8743 204.662C95.1073 204.014 95.2238 203.293 95.2238 202.497C95.2238 201.696 95.1073 200.972 94.8743 200.324C94.6471 199.67 94.3005 199.151 93.8346 198.764C93.3687 198.378 92.7891 198.185 92.0959 198.185C91.3857 198.185 90.7948 198.378 90.3232 198.764C89.8573 199.151 89.5079 199.67 89.2749 200.324C89.0476 200.972 88.934 201.696 88.934 202.497C88.934 203.293 89.0476 204.014 89.2749 204.662C89.5079 205.31 89.8573 205.827 90.3232 206.213C90.7948 206.594 91.3857 206.784 92.0959 206.784ZM100.006 205.412H103.065C103.094 205.901 103.313 206.278 103.722 206.545C104.131 206.812 104.662 206.946 105.315 206.946C105.98 206.946 106.54 206.801 106.994 206.511C107.455 206.216 107.685 205.77 107.685 205.173C107.685 204.821 107.597 204.511 107.421 204.244C107.244 203.972 106.997 203.761 106.679 203.614C106.361 203.466 105.986 203.392 105.554 203.392H103.551V201.202H105.554C106.196 201.202 106.682 201.054 107.011 200.759C107.347 200.463 107.514 200.091 107.514 199.642C107.514 199.159 107.338 198.767 106.986 198.466C106.639 198.165 106.159 198.014 105.546 198.014C104.932 198.014 104.421 198.153 104.011 198.432C103.608 198.71 103.398 199.068 103.381 199.506H100.338C100.35 198.744 100.577 198.082 101.02 197.52C101.469 196.957 102.071 196.52 102.827 196.207C103.588 195.895 104.446 195.739 105.401 195.739C106.423 195.739 107.307 195.892 108.051 196.199C108.796 196.506 109.369 196.935 109.773 197.486C110.176 198.031 110.378 198.673 110.378 199.412C110.378 200.122 110.156 200.71 109.713 201.176C109.27 201.636 108.673 201.966 107.923 202.165V202.301C108.44 202.33 108.906 202.477 109.321 202.744C109.736 203.006 110.065 203.361 110.31 203.81C110.554 204.259 110.676 204.778 110.676 205.369C110.676 206.17 110.446 206.864 109.986 207.449C109.526 208.028 108.892 208.474 108.085 208.787C107.284 209.099 106.367 209.256 105.333 209.256C104.327 209.256 103.426 209.105 102.631 208.804C101.841 208.497 101.213 208.057 100.747 207.483C100.281 206.909 100.034 206.219 100.006 205.412ZM111.706 212.801V206.46H112.746C113.024 206.244 113.257 205.952 113.445 205.582C113.632 205.207 113.786 204.767 113.905 204.261C114.03 203.75 114.132 203.179 114.212 202.548C114.291 201.912 114.362 201.227 114.425 200.494L114.8 195.909H124.26V206.46H126.289V212.801H123.306V209H114.74V212.801H111.706ZM115.916 206.46H121.311V198.398H117.476L117.271 200.494C117.158 201.881 117.007 203.068 116.82 204.057C116.632 205.045 116.331 205.847 115.916 206.46ZM128.352 213.909V195.909H131.386V198.074H131.565C131.724 197.756 131.948 197.418 132.238 197.06C132.528 196.696 132.92 196.386 133.414 196.131C133.909 195.869 134.539 195.739 135.306 195.739C136.318 195.739 137.23 195.997 138.042 196.514C138.86 197.026 139.508 197.784 139.985 198.79C140.468 199.79 140.71 201.017 140.71 202.472C140.71 203.909 140.474 205.131 140.002 206.136C139.531 207.142 138.889 207.909 138.076 208.438C137.264 208.966 136.343 209.23 135.315 209.23C134.565 209.23 133.943 209.105 133.448 208.855C132.954 208.605 132.556 208.304 132.255 207.952C131.96 207.594 131.73 207.256 131.565 206.938H131.437V213.909H128.352ZM131.377 202.455C131.377 203.301 131.497 204.043 131.735 204.679C131.98 205.315 132.329 205.812 132.784 206.17C133.244 206.523 133.801 206.699 134.454 206.699C135.136 206.699 135.707 206.517 136.167 206.153C136.627 205.784 136.974 205.281 137.207 204.645C137.446 204.003 137.565 203.273 137.565 202.455C137.565 201.642 137.448 200.92 137.215 200.29C136.982 199.659 136.636 199.165 136.176 198.807C135.715 198.449 135.142 198.27 134.454 198.27C133.795 198.27 133.235 198.443 132.775 198.79C132.315 199.136 131.965 199.622 131.727 200.247C131.494 200.872 131.377 201.608 131.377 202.455ZM146.879 209.264C146.049 209.264 145.302 209.116 144.637 208.821C143.978 208.52 143.456 208.077 143.069 207.491C142.688 206.906 142.498 206.185 142.498 205.327C142.498 204.588 142.635 203.977 142.907 203.494C143.18 203.011 143.552 202.625 144.024 202.335C144.495 202.045 145.027 201.827 145.617 201.679C146.214 201.526 146.831 201.415 147.467 201.347C148.234 201.267 148.856 201.196 149.333 201.134C149.811 201.065 150.157 200.963 150.373 200.827C150.595 200.685 150.706 200.466 150.706 200.17V200.119C150.706 199.477 150.515 198.98 150.135 198.628C149.754 198.276 149.206 198.099 148.49 198.099C147.734 198.099 147.135 198.264 146.691 198.594C146.254 198.923 145.958 199.312 145.805 199.761L142.924 199.352C143.152 198.557 143.527 197.892 144.049 197.358C144.572 196.818 145.211 196.415 145.967 196.148C146.723 195.875 147.558 195.739 148.473 195.739C149.103 195.739 149.731 195.812 150.356 195.96C150.981 196.108 151.552 196.352 152.069 196.693C152.586 197.028 153.001 197.486 153.313 198.065C153.632 198.645 153.791 199.369 153.791 200.239V209H150.825V207.202H150.723C150.535 207.565 150.271 207.906 149.93 208.224C149.595 208.537 149.171 208.79 148.66 208.983C148.154 209.17 147.561 209.264 146.879 209.264ZM147.68 206.997C148.299 206.997 148.836 206.875 149.291 206.631C149.745 206.381 150.095 206.051 150.339 205.642C150.589 205.233 150.714 204.787 150.714 204.304V202.761C150.617 202.841 150.453 202.915 150.22 202.983C149.992 203.051 149.737 203.111 149.453 203.162C149.169 203.213 148.887 203.259 148.609 203.298C148.331 203.338 148.089 203.372 147.885 203.401C147.424 203.463 147.012 203.565 146.649 203.707C146.285 203.849 145.998 204.048 145.788 204.304C145.578 204.554 145.473 204.878 145.473 205.276C145.473 205.844 145.68 206.273 146.095 206.562C146.51 206.852 147.038 206.997 147.68 206.997ZM156.653 209V195.909H162.15C163.701 195.909 164.926 196.219 165.823 196.838C166.727 197.457 167.179 198.321 167.179 199.429C167.179 200.162 166.923 200.761 166.412 201.227C165.906 201.687 165.216 201.997 164.341 202.156C165.028 202.213 165.63 202.386 166.147 202.676C166.67 202.966 167.079 203.347 167.375 203.818C167.67 204.29 167.818 204.832 167.818 205.446C167.818 206.168 167.627 206.795 167.247 207.33C166.872 207.858 166.323 208.27 165.602 208.565C164.886 208.855 164.017 209 162.994 209H156.653ZM159.542 206.571H162.994C163.562 206.571 164.008 206.437 164.332 206.17C164.656 205.898 164.818 205.528 164.818 205.062C164.818 204.523 164.656 204.099 164.332 203.793C164.008 203.48 163.562 203.324 162.994 203.324H159.542V206.571ZM159.542 201.33H162.21C162.63 201.33 162.991 201.27 163.292 201.151C163.593 201.026 163.823 200.852 163.983 200.631C164.142 200.403 164.221 200.134 164.221 199.821C164.221 199.372 164.037 199.02 163.667 198.764C163.304 198.509 162.798 198.381 162.15 198.381H159.542V201.33ZM169.221 209L169.204 206.46H169.655C169.996 206.46 170.283 206.384 170.516 206.23C170.749 206.077 170.942 205.821 171.096 205.463C171.249 205.099 171.368 204.611 171.454 203.997C171.539 203.384 171.598 202.619 171.632 201.705L171.863 195.909H181.408V209H178.425V198.44H174.667L174.462 202.659C174.411 203.75 174.289 204.696 174.096 205.497C173.908 206.293 173.641 206.949 173.294 207.466C172.954 207.983 172.525 208.369 172.007 208.625C171.49 208.875 170.88 209 170.175 209H169.221ZM192.013 209V198.415H189.218C188.508 198.415 187.962 198.58 187.581 198.909C187.201 199.239 187.013 199.648 187.019 200.136C187.013 200.625 187.192 201.028 187.556 201.347C187.919 201.665 188.439 201.824 189.116 201.824H192.985V204.074H189.116C188.07 204.074 187.167 203.909 186.405 203.58C185.644 203.25 185.059 202.784 184.65 202.182C184.241 201.58 184.036 200.875 184.036 200.068C184.036 199.227 184.243 198.497 184.658 197.878C185.079 197.253 185.675 196.77 186.448 196.429C187.226 196.082 188.15 195.909 189.218 195.909H194.902V209H192.013ZM183.559 209L187.215 202.284H190.258L186.593 209H183.559ZM203.564 209.256C202.252 209.256 201.118 208.983 200.164 208.438C199.215 207.886 198.485 207.108 197.974 206.102C197.462 205.091 197.206 203.901 197.206 202.531C197.206 201.185 197.462 200.003 197.974 198.986C198.491 197.963 199.212 197.168 200.138 196.599C201.064 196.026 202.152 195.739 203.402 195.739C204.209 195.739 204.971 195.869 205.687 196.131C206.408 196.386 207.045 196.784 207.596 197.324C208.152 197.864 208.59 198.551 208.908 199.386C209.226 200.216 209.385 201.205 209.385 202.352V203.298H198.655V201.219H206.428C206.422 200.628 206.295 200.102 206.045 199.642C205.795 199.176 205.445 198.81 204.996 198.543C204.553 198.276 204.036 198.142 203.445 198.142C202.814 198.142 202.26 198.295 201.783 198.602C201.306 198.903 200.934 199.301 200.667 199.795C200.405 200.284 200.272 200.821 200.266 201.406V203.222C200.266 203.983 200.405 204.636 200.684 205.182C200.962 205.722 201.351 206.136 201.851 206.426C202.351 206.71 202.937 206.852 203.607 206.852C204.056 206.852 204.462 206.79 204.826 206.665C205.189 206.534 205.505 206.344 205.772 206.094C206.039 205.844 206.241 205.534 206.377 205.165L209.258 205.489C209.076 206.25 208.729 206.915 208.218 207.483C207.712 208.045 207.064 208.483 206.275 208.795C205.485 209.102 204.581 209.256 203.564 209.256ZM219.29 205.412L223.176 195.909H225.665L220.372 209H218.216L213.042 195.909H215.506L219.29 205.412ZM214.73 195.909V209H211.756V195.909H214.73ZM223.977 209V195.909H226.926V209H223.977ZM233.572 191.545L233.291 203.869H230.547L230.274 191.545H233.572ZM231.919 209.188C231.402 209.188 230.959 209.006 230.589 208.642C230.226 208.278 230.044 207.835 230.044 207.312C230.044 206.801 230.226 206.364 230.589 206C230.959 205.636 231.402 205.455 231.919 205.455C232.425 205.455 232.862 205.636 233.231 206C233.606 206.364 233.794 206.801 233.794 207.312C233.794 207.659 233.706 207.974 233.53 208.259C233.359 208.543 233.132 208.77 232.848 208.94C232.57 209.105 232.26 209.188 231.919 209.188Z" fill="black"/>
</g>
<g filter="url(#filter4_d_90_1256)">
<circle cx="64.5" cy="88.5" r="3.5" fill="#DB66E4"/>
</g>
<g filter="url(#filter5_d_90_1256)">
<circle cx="263.5" cy="155.5" r="3.5" fill="#DB66E4"/>
</g>
<g filter="url(#filter6_d_90_1256)">
<circle cx="236.5" cy="15.5" r="3.5" fill="#DB66E4"/>
</g>
<g filter="url(#filter7_d_90_1256)">
<circle cx="238.5" cy="61.5" r="7.5" fill="#DB66E4"/>
</g>
<g filter="url(#filter8_d_90_1256)">
<circle cx="81.5" cy="141.5" r="7.5" fill="#DB66E4"/>
</g>
<g filter="url(#filter9_d_90_1256)">
<circle cx="82.5" cy="24.5" r="7.5" fill="#DB66E4"/>
</g>
<g filter="url(#filter10_d_90_1256)">
<circle cx="98" cy="70" r="5" fill="#DB66E4"/>
</g>
<path d="M26.233 244V233.818H29.7926C30.5019 233.818 31.0869 233.941 31.5476 234.186C32.0083 234.428 32.3513 234.754 32.5767 235.165C32.8021 235.573 32.9148 236.026 32.9148 236.523C32.9148 236.96 32.8369 237.321 32.6811 237.607C32.5286 237.892 32.3265 238.117 32.0746 238.283C31.826 238.448 31.5559 238.571 31.2642 238.651V238.75C31.5758 238.77 31.889 238.879 32.2038 239.078C32.5187 239.277 32.7822 239.562 32.9943 239.933C33.2064 240.304 33.3125 240.759 33.3125 241.295C33.3125 241.806 33.1965 242.265 32.9645 242.673C32.7325 243.08 32.3662 243.403 31.8658 243.642C31.3653 243.881 30.714 244 29.9119 244H26.233ZM27.4659 242.906H29.9119C30.7173 242.906 31.2891 242.75 31.6271 242.439C31.9685 242.124 32.1392 241.743 32.1392 241.295C32.1392 240.951 32.0514 240.633 31.8757 240.341C31.7 240.046 31.4498 239.811 31.125 239.635C30.8002 239.456 30.4157 239.366 29.9716 239.366H27.4659V242.906ZM27.4659 238.293H29.7528C30.1241 238.293 30.4588 238.22 30.7571 238.074C31.0587 237.928 31.2973 237.723 31.473 237.457C31.652 237.192 31.7415 236.881 31.7415 236.523C31.7415 236.075 31.5857 235.696 31.2741 235.384C30.9626 235.069 30.4688 234.912 29.7926 234.912H27.4659V238.293ZM37.2165 244.179C36.7326 244.179 36.2934 244.088 35.899 243.906C35.5046 243.72 35.1914 243.453 34.9594 243.105C34.7274 242.754 34.6114 242.33 34.6114 241.832C34.6114 241.395 34.6976 241.04 34.8699 240.768C35.0422 240.493 35.2726 240.278 35.561 240.122C35.8493 239.966 36.1675 239.85 36.5155 239.774C36.8668 239.695 37.2198 239.632 37.5744 239.585C38.0385 239.526 38.4146 239.481 38.703 239.451C38.9947 239.418 39.2068 239.363 39.3394 239.287C39.4753 239.211 39.5432 239.078 39.5432 238.889V238.849C39.5432 238.359 39.409 237.978 39.1405 237.706C38.8753 237.434 38.4726 237.298 37.9324 237.298C37.3723 237.298 36.9331 237.421 36.6149 237.666C36.2967 237.911 36.073 238.173 35.9438 238.452L34.8301 238.054C35.029 237.59 35.2941 237.229 35.6256 236.97C35.9603 236.708 36.3249 236.526 36.7193 236.423C37.1171 236.317 37.5082 236.264 37.8926 236.264C38.1379 236.264 38.4196 236.294 38.7378 236.354C39.0593 236.41 39.3692 236.528 39.6675 236.707C39.9691 236.886 40.2193 237.156 40.4182 237.517C40.6171 237.878 40.7165 238.362 40.7165 238.969V244H39.5432V242.966H39.4835C39.404 243.132 39.2714 243.309 39.0858 243.498C38.9002 243.687 38.6533 243.848 38.345 243.98C38.0368 244.113 37.6606 244.179 37.2165 244.179ZM37.3955 243.125C37.8595 243.125 38.2506 243.034 38.5688 242.852C38.8903 242.669 39.1322 242.434 39.2946 242.146C39.4603 241.857 39.5432 241.554 39.5432 241.236V240.162C39.4935 240.222 39.3841 240.276 39.2151 240.326C39.0494 240.372 38.8571 240.414 38.6384 240.45C38.4229 240.483 38.2125 240.513 38.007 240.54C37.8048 240.563 37.6407 240.583 37.5148 240.599C37.2099 240.639 36.9248 240.704 36.6597 240.793C36.3978 240.879 36.1857 241.01 36.0233 241.186C35.8642 241.358 35.7847 241.594 35.7847 241.892C35.7847 242.3 35.9355 242.608 36.2371 242.817C36.542 243.022 36.9281 243.125 37.3955 243.125ZM42.648 236.364H43.8213V242.906H46.7048V236.364H47.8781V242.906H50.7616V236.364H51.9349V244H42.648V236.364ZM59.8424 244.179C59.3584 244.179 58.9193 244.088 58.5249 243.906C58.1305 243.72 57.8173 243.453 57.5852 243.105C57.3532 242.754 57.2372 242.33 57.2372 241.832C57.2372 241.395 57.3234 241.04 57.4958 240.768C57.6681 240.493 57.8985 240.278 58.1868 240.122C58.4752 239.966 58.7933 239.85 59.1414 239.774C59.4927 239.695 59.8457 239.632 60.2003 239.585C60.6643 239.526 61.0405 239.481 61.3289 239.451C61.6205 239.418 61.8326 239.363 61.9652 239.287C62.1011 239.211 62.1691 239.078 62.1691 238.889V238.849C62.1691 238.359 62.0348 237.978 61.7664 237.706C61.5012 237.434 61.0985 237.298 60.5583 237.298C59.9981 237.298 59.559 237.421 59.2408 237.666C58.9226 237.911 58.6989 238.173 58.5696 238.452L57.456 238.054C57.6549 237.59 57.92 237.229 58.2514 236.97C58.5862 236.708 58.9508 236.526 59.3452 236.423C59.7429 236.317 60.134 236.264 60.5185 236.264C60.7638 236.264 61.0455 236.294 61.3637 236.354C61.6852 236.41 61.995 236.528 62.2933 236.707C62.595 236.886 62.8452 237.156 63.0441 237.517C63.2429 237.878 63.3424 238.362 63.3424 238.969V244H62.1691V242.966H62.1094C62.0299 243.132 61.8973 243.309 61.7117 243.498C61.5261 243.687 61.2791 243.848 60.9709 243.98C60.6627 244.113 60.2865 244.179 59.8424 244.179ZM60.0213 243.125C60.4853 243.125 60.8764 243.034 61.1946 242.852C61.5161 242.669 61.7581 242.434 61.9205 242.146C62.0862 241.857 62.1691 241.554 62.1691 241.236V240.162C62.1193 240.222 62.01 240.276 61.8409 240.326C61.6752 240.372 61.483 240.414 61.2642 240.45C61.0488 240.483 60.8383 240.513 60.6328 240.54C60.4307 240.563 60.2666 240.583 60.1406 240.599C59.8357 240.639 59.5507 240.704 59.2855 240.793C59.0237 240.879 58.8116 241.01 58.6492 241.186C58.4901 241.358 58.4105 241.594 58.4105 241.892C58.4105 242.3 58.5613 242.608 58.8629 242.817C59.1679 243.022 59.554 243.125 60.0213 243.125ZM65.2739 244V236.364H66.4472V239.685H67.2227L69.967 236.364H71.4784L68.396 240.043L71.5182 244H70.0068L67.5011 240.778H66.4472V244H65.2739ZM72.5834 244V236.364H73.7567V239.685H74.5323L77.2766 236.364H78.7879L75.7056 240.043L78.8277 244H77.3164L74.8107 240.778H73.7567V244H72.5834ZM82.1401 244.179C81.6562 244.179 81.217 244.088 80.8226 243.906C80.4282 243.72 80.115 243.453 79.883 243.105C79.651 242.754 79.535 242.33 79.535 241.832C79.535 241.395 79.6211 241.04 79.7935 240.768C79.9658 240.493 80.1962 240.278 80.4845 240.122C80.7729 239.966 81.0911 239.85 81.4391 239.774C81.7904 239.695 82.1434 239.632 82.498 239.585C82.9621 239.526 83.3382 239.481 83.6266 239.451C83.9183 239.418 84.1304 239.363 84.263 239.287C84.3988 239.211 84.4668 239.078 84.4668 238.889V238.849C84.4668 238.359 84.3326 237.978 84.0641 237.706C83.7989 237.434 83.3962 237.298 82.856 237.298C82.2959 237.298 81.8567 237.421 81.5385 237.666C81.2203 237.911 80.9966 238.173 80.8674 238.452L79.7537 238.054C79.9526 237.59 80.2177 237.229 80.5492 236.97C80.8839 236.708 81.2485 236.526 81.6429 236.423C82.0407 236.317 82.4318 236.264 82.8162 236.264C83.0615 236.264 83.3432 236.294 83.6614 236.354C83.9829 236.41 84.2928 236.528 84.5911 236.707C84.8927 236.886 85.1429 237.156 85.3418 237.517C85.5407 237.878 85.6401 238.362 85.6401 238.969V244H84.4668V242.966H84.4071C84.3276 243.132 84.195 243.309 84.0094 243.498C83.8238 243.687 83.5769 243.848 83.2686 243.98C82.9604 244.113 82.5842 244.179 82.1401 244.179ZM82.3191 243.125C82.7831 243.125 83.1742 243.034 83.4924 242.852C83.8139 242.669 84.0558 242.434 84.2182 242.146C84.3839 241.857 84.4668 241.554 84.4668 241.236V240.162C84.4171 240.222 84.3077 240.276 84.1387 240.326C83.9729 240.372 83.7807 240.414 83.562 240.45C83.3465 240.483 83.1361 240.513 82.9306 240.54C82.7284 240.563 82.5643 240.583 82.4384 240.599C82.1335 240.639 81.8484 240.704 81.5833 240.793C81.3214 240.879 81.1093 241.01 80.9469 241.186C80.7878 241.358 80.7083 241.594 80.7083 241.892C80.7083 242.3 80.8591 242.608 81.1607 242.817C81.4656 243.022 81.8517 243.125 82.3191 243.125ZM88.0538 246.864C87.855 246.864 87.6777 246.847 87.5219 246.814C87.3661 246.784 87.2584 246.754 87.1987 246.724L87.497 245.69C87.7821 245.763 88.034 245.79 88.2527 245.77C88.4715 245.75 88.6653 245.652 88.8344 245.477C89.0067 245.304 89.1642 245.024 89.3067 244.636L89.5254 244.04L86.7016 236.364H87.9743L90.0823 242.449H90.1618L92.2698 236.364H93.5425L90.301 245.114C90.1552 245.508 89.9745 245.835 89.7591 246.093C89.5437 246.355 89.2934 246.549 89.0084 246.675C88.7267 246.801 88.4085 246.864 88.0538 246.864ZM99.9919 239.645V240.739H95.776V239.645H99.9919ZM96.0544 236.364V244H94.8811V236.364H96.0544ZM100.887 236.364V244H99.7135V236.364H100.887ZM101.781 237.457V236.364H107.985V237.457H105.479V244H104.306V237.457H101.781ZM117.927 236.364V237.457H114.387V244H113.214V236.364H117.927ZM122.136 244.159C121.446 244.159 120.841 243.995 120.321 243.667C119.804 243.339 119.4 242.88 119.108 242.29C118.82 241.7 118.675 241.01 118.675 240.222C118.675 239.426 118.82 238.732 119.108 238.138C119.4 237.545 119.804 237.085 120.321 236.756C120.841 236.428 121.446 236.264 122.136 236.264C122.825 236.264 123.428 236.428 123.945 236.756C124.466 237.085 124.87 237.545 125.158 238.138C125.45 238.732 125.596 239.426 125.596 240.222C125.596 241.01 125.45 241.7 125.158 242.29C124.87 242.88 124.466 243.339 123.945 243.667C123.428 243.995 122.825 244.159 122.136 244.159ZM122.136 243.105C122.659 243.105 123.09 242.971 123.428 242.702C123.766 242.434 124.017 242.081 124.179 241.643C124.341 241.206 124.423 240.732 124.423 240.222C124.423 239.711 124.341 239.236 124.179 238.795C124.017 238.354 123.766 237.998 123.428 237.726C123.09 237.454 122.659 237.318 122.136 237.318C121.612 237.318 121.181 237.454 120.843 237.726C120.505 237.998 120.255 238.354 120.092 238.795C119.93 239.236 119.849 239.711 119.849 240.222C119.849 240.732 119.93 241.206 120.092 241.643C120.255 242.081 120.505 242.434 120.843 242.702C121.181 242.971 121.612 243.105 122.136 243.105ZM126.179 237.457V236.364H132.383V237.457H129.878V244H128.704V237.457H126.179ZM136.591 244.159C135.901 244.159 135.296 243.995 134.776 243.667C134.259 243.339 133.855 242.88 133.563 242.29C133.275 241.7 133.13 241.01 133.13 240.222C133.13 239.426 133.275 238.732 133.563 238.138C133.855 237.545 134.259 237.085 134.776 236.756C135.296 236.428 135.901 236.264 136.591 236.264C137.28 236.264 137.883 236.428 138.4 236.756C138.921 237.085 139.325 237.545 139.613 238.138C139.905 238.732 140.051 239.426 140.051 240.222C140.051 241.01 139.905 241.7 139.613 242.29C139.325 242.88 138.921 243.339 138.4 243.667C137.883 243.995 137.28 244.159 136.591 244.159ZM136.591 243.105C137.114 243.105 137.545 242.971 137.883 242.702C138.221 242.434 138.472 242.081 138.634 241.643C138.796 241.206 138.878 240.732 138.878 240.222C138.878 239.711 138.796 239.236 138.634 238.795C138.472 238.354 138.221 237.998 137.883 237.726C137.545 237.454 137.114 237.318 136.591 237.318C136.067 237.318 135.636 237.454 135.298 237.726C134.96 237.998 134.71 238.354 134.547 238.795C134.385 239.236 134.304 239.711 134.304 240.222C134.304 240.732 134.385 241.206 134.547 241.643C134.71 242.081 134.96 242.434 135.298 242.702C135.636 242.971 136.067 243.105 136.591 243.105ZM141.632 244V236.364H144.754C145.576 236.364 146.229 236.549 146.713 236.92C147.197 237.292 147.439 237.782 147.439 238.392C147.439 238.856 147.301 239.216 147.026 239.471C146.751 239.723 146.398 239.893 145.967 239.983C146.249 240.023 146.522 240.122 146.787 240.281C147.056 240.44 147.278 240.659 147.454 240.938C147.629 241.213 147.717 241.551 147.717 241.952C147.717 242.343 147.618 242.692 147.419 243.001C147.22 243.309 146.935 243.553 146.564 243.732C146.192 243.911 145.748 244 145.231 244H141.632ZM142.745 242.926H145.231C145.636 242.926 145.952 242.83 146.181 242.638C146.41 242.446 146.524 242.184 146.524 241.852C146.524 241.458 146.41 241.148 146.181 240.923C145.952 240.694 145.636 240.58 145.231 240.58H142.745V242.926ZM142.745 239.565H144.754C145.069 239.565 145.339 239.522 145.564 239.436C145.79 239.347 145.962 239.221 146.081 239.058C146.204 238.893 146.265 238.697 146.265 238.472C146.265 238.15 146.131 237.898 145.863 237.716C145.594 237.53 145.225 237.438 144.754 237.438H142.745V239.565ZM153.011 244V236.364H154.184V239.685H154.96L157.704 236.364H159.215L156.133 240.043L159.255 244H157.744L155.238 240.778H154.184V244H153.011ZM165.221 242.27L168.9 236.364H170.252V244H169.079V238.094L165.42 244H164.048V236.364H165.221V242.27ZM175.293 244.159C174.578 244.159 173.961 243.99 173.444 243.652C172.927 243.314 172.529 242.848 172.251 242.255C171.972 241.662 171.833 240.984 171.833 240.222C171.833 239.446 171.976 238.762 172.261 238.168C172.549 237.572 172.95 237.106 173.464 236.771C173.981 236.433 174.584 236.264 175.274 236.264C175.811 236.264 176.294 236.364 176.725 236.562C177.156 236.761 177.509 237.04 177.784 237.398C178.059 237.756 178.23 238.173 178.296 238.651H177.123C177.034 238.303 176.835 237.994 176.526 237.726C176.222 237.454 175.811 237.318 175.293 237.318C174.836 237.318 174.435 237.437 174.09 237.676C173.749 237.911 173.482 238.245 173.29 238.675C173.101 239.103 173.007 239.605 173.007 240.182C173.007 240.772 173.099 241.286 173.285 241.723C173.474 242.161 173.739 242.5 174.08 242.742C174.425 242.984 174.829 243.105 175.293 243.105C175.598 243.105 175.875 243.052 176.124 242.946C176.372 242.84 176.583 242.688 176.755 242.489C176.927 242.29 177.05 242.051 177.123 241.773H178.296C178.23 242.223 178.066 242.629 177.804 242.991C177.546 243.349 177.203 243.634 176.775 243.846C176.351 244.055 175.857 244.159 175.293 244.159ZM179.802 244V236.364H185.807V244H184.634V237.457H180.975V244H179.802ZM190.842 244.159C190.153 244.159 189.548 243.995 189.028 243.667C188.511 243.339 188.106 242.88 187.815 242.29C187.526 241.7 187.382 241.01 187.382 240.222C187.382 239.426 187.526 238.732 187.815 238.138C188.106 237.545 188.511 237.085 189.028 236.756C189.548 236.428 190.153 236.264 190.842 236.264C191.532 236.264 192.135 236.428 192.652 236.756C193.172 237.085 193.577 237.545 193.865 238.138C194.157 238.732 194.302 239.426 194.302 240.222C194.302 241.01 194.157 241.7 193.865 242.29C193.577 242.88 193.172 243.339 192.652 243.667C192.135 243.995 191.532 244.159 190.842 244.159ZM190.842 243.105C191.366 243.105 191.797 242.971 192.135 242.702C192.473 242.434 192.723 242.081 192.886 241.643C193.048 241.206 193.129 240.732 193.129 240.222C193.129 239.711 193.048 239.236 192.886 238.795C192.723 238.354 192.473 237.998 192.135 237.726C191.797 237.454 191.366 237.318 190.842 237.318C190.319 237.318 189.888 237.454 189.55 237.726C189.212 237.998 188.961 238.354 188.799 238.795C188.636 239.236 188.555 239.711 188.555 240.222C188.555 240.732 188.636 241.206 188.799 241.643C188.961 242.081 189.212 242.434 189.55 242.702C189.888 242.971 190.319 243.105 190.842 243.105ZM195.207 244V242.906H195.486C195.714 242.906 195.905 242.862 196.057 242.772C196.21 242.679 196.333 242.518 196.425 242.29C196.522 242.058 196.594 241.736 196.644 241.325C196.697 240.911 196.735 240.384 196.758 239.744L196.898 236.364H201.989V244H200.815V237.457H198.011L197.892 240.182C197.865 240.808 197.809 241.36 197.723 241.837C197.64 242.311 197.513 242.709 197.34 243.031C197.171 243.352 196.946 243.594 196.664 243.756C196.382 243.919 196.029 244 195.605 244H195.207ZM204.945 239.128H207.133C208.028 239.128 208.712 239.355 209.186 239.809C209.66 240.263 209.897 240.838 209.897 241.534C209.897 241.991 209.791 242.407 209.579 242.782C209.367 243.153 209.055 243.45 208.644 243.672C208.233 243.891 207.73 244 207.133 244H203.931V236.364H205.105V242.906H207.133C207.597 242.906 207.978 242.784 208.276 242.538C208.575 242.293 208.724 241.978 208.724 241.594C208.724 241.189 208.575 240.86 208.276 240.604C207.978 240.349 207.597 240.222 207.133 240.222H204.945V239.128ZM210.996 242.051H212.249C212.275 242.396 212.431 242.658 212.716 242.837C213.004 243.016 213.379 243.105 213.84 243.105C214.31 243.105 214.713 243.009 215.048 242.817C215.383 242.621 215.55 242.306 215.55 241.872C215.55 241.617 215.487 241.395 215.361 241.206C215.235 241.014 215.058 240.865 214.829 240.759C214.6 240.652 214.33 240.599 214.019 240.599H212.706V239.545H214.019C214.486 239.545 214.831 239.439 215.053 239.227C215.278 239.015 215.391 238.75 215.391 238.432C215.391 238.09 215.27 237.817 215.028 237.612C214.786 237.403 214.443 237.298 213.999 237.298C213.551 237.298 213.178 237.399 212.88 237.602C212.582 237.8 212.424 238.057 212.408 238.372H211.175C211.188 237.961 211.314 237.598 211.553 237.283C211.791 236.965 212.116 236.717 212.527 236.538C212.938 236.355 213.409 236.264 213.939 236.264C214.476 236.264 214.942 236.359 215.336 236.548C215.734 236.733 216.04 236.987 216.256 237.308C216.475 237.626 216.584 237.988 216.584 238.392C216.584 238.823 216.463 239.171 216.221 239.436C215.979 239.701 215.676 239.89 215.311 240.003V240.082C215.6 240.102 215.85 240.195 216.062 240.361C216.277 240.523 216.445 240.737 216.564 241.002C216.683 241.264 216.743 241.554 216.743 241.872C216.743 242.336 216.619 242.741 216.37 243.085C216.122 243.427 215.78 243.692 215.346 243.881C214.912 244.066 214.416 244.159 213.86 244.159C213.319 244.159 212.835 244.071 212.408 243.896C211.98 243.717 211.641 243.47 211.389 243.155C211.14 242.837 211.009 242.469 210.996 242.051ZM221.283 244.159C220.594 244.159 219.989 243.995 219.469 243.667C218.952 243.339 218.547 242.88 218.256 242.29C217.967 241.7 217.823 241.01 217.823 240.222C217.823 239.426 217.967 238.732 218.256 238.138C218.547 237.545 218.952 237.085 219.469 236.756C219.989 236.428 220.594 236.264 221.283 236.264C221.973 236.264 222.576 236.428 223.093 236.756C223.614 237.085 224.018 237.545 224.306 238.138C224.598 238.732 224.744 239.426 224.744 240.222C224.744 241.01 224.598 241.7 224.306 242.29C224.018 242.88 223.614 243.339 223.093 243.667C222.576 243.995 221.973 244.159 221.283 244.159ZM221.283 243.105C221.807 243.105 222.238 242.971 222.576 242.702C222.914 242.434 223.164 242.081 223.327 241.643C223.489 241.206 223.57 240.732 223.57 240.222C223.57 239.711 223.489 239.236 223.327 238.795C223.164 238.354 222.914 237.998 222.576 237.726C222.238 237.454 221.807 237.318 221.283 237.318C220.76 237.318 220.329 237.454 219.991 237.726C219.653 237.998 219.403 238.354 219.24 238.795C219.078 239.236 218.997 239.711 218.997 240.222C218.997 240.732 219.078 241.206 219.24 241.643C219.403 242.081 219.653 242.434 219.991 242.702C220.329 242.971 220.76 243.105 221.283 243.105ZM226.325 244V236.364H229.447C230.269 236.364 230.922 236.549 231.406 236.92C231.89 237.292 232.132 237.782 232.132 238.392C232.132 238.856 231.994 239.216 231.719 239.471C231.444 239.723 231.091 239.893 230.66 239.983C230.942 240.023 231.215 240.122 231.48 240.281C231.749 240.44 231.971 240.659 232.146 240.938C232.322 241.213 232.41 241.551 232.41 241.952C232.41 242.343 232.311 242.692 232.112 243.001C231.913 243.309 231.628 243.553 231.257 243.732C230.885 243.911 230.441 244 229.924 244H226.325ZM227.438 242.926H229.924C230.329 242.926 230.645 242.83 230.874 242.638C231.102 242.446 231.217 242.184 231.217 241.852C231.217 241.458 231.102 241.148 230.874 240.923C230.645 240.694 230.329 240.58 229.924 240.58H227.438V242.926ZM227.438 239.565H229.447C229.762 239.565 230.032 239.522 230.257 239.436C230.483 239.347 230.655 239.221 230.774 239.058C230.897 238.893 230.958 238.697 230.958 238.472C230.958 238.15 230.824 237.898 230.556 237.716C230.287 237.53 229.918 237.438 229.447 237.438H227.438V239.565ZM236.223 244.179C235.739 244.179 235.3 244.088 234.906 243.906C234.511 243.72 234.198 243.453 233.966 243.105C233.734 242.754 233.618 242.33 233.618 241.832C233.618 241.395 233.704 241.04 233.877 240.768C234.049 240.493 234.279 240.278 234.568 240.122C234.856 239.966 235.174 239.85 235.522 239.774C235.874 239.695 236.227 239.632 236.581 239.585C237.045 239.526 237.421 239.481 237.71 239.451C238.001 239.418 238.214 239.363 238.346 239.287C238.482 239.211 238.55 239.078 238.55 238.889V238.849C238.55 238.359 238.416 237.978 238.147 237.706C237.882 237.434 237.479 237.298 236.939 237.298C236.379 237.298 235.94 237.421 235.622 237.666C235.303 237.911 235.08 238.173 234.95 238.452L233.837 238.054C234.036 237.59 234.301 237.229 234.632 236.97C234.967 236.708 235.332 236.526 235.726 236.423C236.124 236.317 236.515 236.264 236.899 236.264C237.145 236.264 237.426 236.294 237.745 236.354C238.066 236.41 238.376 236.528 238.674 236.707C238.976 236.886 239.226 237.156 239.425 237.517C239.624 237.878 239.723 238.362 239.723 238.969V244H238.55V242.966H238.49C238.411 243.132 238.278 243.309 238.093 243.498C237.907 243.687 237.66 243.848 237.352 243.98C237.044 244.113 236.667 244.179 236.223 244.179ZM236.402 243.125C236.866 243.125 237.257 243.034 237.575 242.852C237.897 242.669 238.139 242.434 238.301 242.146C238.467 241.857 238.55 241.554 238.55 241.236V240.162C238.5 240.222 238.391 240.276 238.222 240.326C238.056 240.372 237.864 240.414 237.645 240.45C237.43 240.483 237.219 240.513 237.014 240.54C236.812 240.563 236.647 240.583 236.522 240.599C236.217 240.639 235.932 240.704 235.666 240.793C235.405 240.879 235.192 241.01 235.03 241.186C234.871 241.358 234.791 241.594 234.791 241.892C234.791 242.3 234.942 242.608 235.244 242.817C235.549 243.022 235.935 243.125 236.402 243.125ZM246.766 239.645V240.739H242.55V239.645H246.766ZM242.828 236.364V244H241.655V236.364H242.828ZM247.66 236.364V244H246.487V236.364H247.66ZM250.766 242.27L254.445 236.364H255.798V244H254.624V238.094L250.965 244H249.593V236.364H250.766V242.27ZM261.396 239.705V240.798H257.359V239.705H261.396ZM258.353 236.364V244H257.18V236.364H258.353ZM263.742 244.159C263.053 244.159 262.448 243.995 261.928 243.667C261.411 243.339 261.006 242.88 260.715 242.29C260.426 241.7 260.282 241.01 260.282 240.222C260.282 239.426 260.426 238.732 260.715 238.138C261.006 237.545 261.411 237.085 261.928 236.756C262.448 236.428 263.053 236.264 263.742 236.264C264.432 236.264 265.035 236.428 265.552 236.756C266.072 237.085 266.477 237.545 266.765 238.138C267.057 238.732 267.203 239.426 267.203 240.222C267.203 241.01 267.057 241.7 266.765 242.29C266.477 242.88 266.072 243.339 265.552 243.667C265.035 243.995 264.432 244.159 263.742 244.159ZM263.742 243.105C264.266 243.105 264.697 242.971 265.035 242.702C265.373 242.434 265.623 242.081 265.786 241.643C265.948 241.206 266.029 240.732 266.029 240.222C266.029 239.711 265.948 239.236 265.786 238.795C265.623 238.354 265.373 237.998 265.035 237.726C264.697 237.454 264.266 237.318 263.742 237.318C263.219 237.318 262.788 237.454 262.45 237.726C262.112 237.998 261.861 238.354 261.699 238.795C261.537 239.236 261.455 239.711 261.455 240.222C261.455 240.732 261.537 241.206 261.699 241.643C261.861 242.081 262.112 242.434 262.45 242.702C262.788 242.971 263.219 243.105 263.742 243.105ZM269.757 244.08C269.512 244.08 269.301 243.992 269.125 243.816C268.95 243.64 268.862 243.43 268.862 243.185C268.862 242.939 268.95 242.729 269.125 242.553C269.301 242.378 269.512 242.29 269.757 242.29C270.002 242.29 270.213 242.378 270.388 242.553C270.564 242.729 270.652 242.939 270.652 243.185C270.652 243.347 270.61 243.496 270.527 243.632C270.448 243.768 270.34 243.877 270.204 243.96C270.072 244.04 269.923 244.08 269.757 244.08ZM26.3324 250.818H27.5653V254.219C27.5653 254.723 27.6532 255.119 27.8288 255.407C28.0045 255.692 28.2531 255.894 28.5746 256.013C28.8961 256.129 29.2756 256.188 29.7131 256.188C29.9882 256.188 30.255 256.178 30.5135 256.158C30.772 256.134 31.0239 256.103 31.2692 256.063C31.5178 256.023 31.7597 255.975 31.995 255.919C32.2337 255.863 32.4673 255.8 32.696 255.73V256.844C32.474 256.913 32.2536 256.976 32.0348 257.033C31.8194 257.089 31.594 257.137 31.3587 257.177C31.1267 257.217 30.8764 257.248 30.608 257.271C30.3395 257.291 30.0412 257.301 29.7131 257.301C29.0104 257.301 28.4055 257.2 27.8984 256.998C27.3946 256.796 27.0069 256.469 26.7351 256.018C26.4666 255.568 26.3324 254.968 26.3324 254.219V250.818ZM32.5369 250.818H33.7699V261H32.5369V250.818ZM39.0734 261.159C38.3376 261.159 37.7029 260.997 37.1693 260.672C36.639 260.344 36.2296 259.886 35.9413 259.3C35.6562 258.71 35.5137 258.024 35.5137 257.241C35.5137 256.459 35.6562 255.77 35.9413 255.173C36.2296 254.573 36.6307 254.106 37.1444 253.771C37.6614 253.433 38.2647 253.264 38.9541 253.264C39.3518 253.264 39.7445 253.33 40.1323 253.463C40.5201 253.596 40.8731 253.811 41.1913 254.109C41.5095 254.404 41.763 254.795 41.9519 255.283C42.1409 255.77 42.2353 256.37 42.2353 257.082V257.58H36.3489V256.565H41.0421C41.0421 256.134 40.956 255.75 40.7836 255.412C40.6146 255.074 40.3726 254.807 40.0578 254.612C39.7462 254.416 39.3783 254.318 38.9541 254.318C38.4867 254.318 38.0824 254.434 37.741 254.666C37.4029 254.895 37.1427 255.193 36.9605 255.561C36.7782 255.929 36.687 256.323 36.687 256.744V257.42C36.687 257.997 36.7864 258.486 36.9853 258.887C37.1875 259.285 37.4676 259.588 37.8255 259.797C38.1835 260.002 38.5994 260.105 39.0734 260.105C39.3816 260.105 39.66 260.062 39.9086 259.976C40.1605 259.886 40.3776 259.754 40.5599 259.578C40.7422 259.399 40.883 259.177 40.9825 258.912L42.116 259.23C41.9967 259.615 41.7962 259.953 41.5144 260.244C41.2327 260.533 40.8847 260.758 40.4704 260.92C40.0561 261.08 39.5904 261.159 39.0734 261.159ZM43.8101 263.864V253.364H44.9436V254.577H45.0828C45.169 254.444 45.2883 254.275 45.4408 254.07C45.5966 253.861 45.8186 253.675 46.107 253.513C46.3987 253.347 46.7931 253.264 47.2902 253.264C47.9332 253.264 48.5 253.425 48.9905 253.746C49.481 254.068 49.8639 254.524 50.1389 255.114C50.414 255.704 50.5516 256.4 50.5516 257.202C50.5516 258.01 50.414 258.711 50.1389 259.305C49.8639 259.895 49.4827 260.352 48.9955 260.677C48.5083 260.998 47.9465 261.159 47.3101 261.159C46.8196 261.159 46.4268 261.078 46.1318 260.915C45.8369 260.75 45.6098 260.562 45.4507 260.354C45.2916 260.142 45.169 259.966 45.0828 259.827H44.9834V263.864H43.8101ZM44.9635 257.182C44.9635 257.759 45.048 258.267 45.2171 258.708C45.3861 259.146 45.633 259.489 45.9578 259.737C46.2827 259.982 46.6804 260.105 47.151 260.105C47.6416 260.105 48.0509 259.976 48.379 259.717C48.7104 259.455 48.959 259.104 49.1247 258.663C49.2938 258.219 49.3783 257.725 49.3783 257.182C49.3783 256.645 49.2954 256.161 49.1297 255.73C48.9673 255.296 48.7204 254.953 48.3889 254.701C48.0608 254.446 47.6482 254.318 47.151 254.318C46.6738 254.318 46.2727 254.439 45.9479 254.681C45.6231 254.92 45.3778 255.254 45.2121 255.685C45.0464 256.113 44.9635 256.612 44.9635 257.182ZM55.3331 261.159C54.5973 261.159 53.9626 260.997 53.4289 260.672C52.8986 260.344 52.4893 259.886 52.201 259.3C51.9159 258.71 51.7734 258.024 51.7734 257.241C51.7734 256.459 51.9159 255.77 52.201 255.173C52.4893 254.573 52.8904 254.106 53.4041 253.771C53.9211 253.433 54.5244 253.264 55.2138 253.264C55.6115 253.264 56.0042 253.33 56.392 253.463C56.7798 253.596 57.1328 253.811 57.451 254.109C57.7691 254.404 58.0227 254.795 58.2116 255.283C58.4005 255.77 58.495 256.37 58.495 257.082V257.58H52.6086V256.565H57.3018C57.3018 256.134 57.2156 255.75 57.0433 255.412C56.8743 255.074 56.6323 254.807 56.3174 254.612C56.0059 254.416 55.638 254.318 55.2138 254.318C54.7464 254.318 54.3421 254.434 54.0007 254.666C53.6626 254.895 53.4024 255.193 53.2201 255.561C53.0379 255.929 52.9467 256.323 52.9467 256.744V257.42C52.9467 257.997 53.0461 258.486 53.245 258.887C53.4472 259.285 53.7272 259.588 54.0852 259.797C54.4432 260.002 54.8591 260.105 55.3331 260.105C55.6413 260.105 55.9197 260.062 56.1683 259.976C56.4202 259.886 56.6373 259.754 56.8196 259.578C57.0019 259.399 57.1427 259.177 57.2422 258.912L58.3757 259.23C58.2564 259.615 58.0558 259.953 57.7741 260.244C57.4924 260.533 57.1444 260.758 56.7301 260.92C56.3158 261.08 55.8501 261.159 55.3331 261.159ZM59.5925 259.051H60.8454C60.8719 259.396 61.0277 259.658 61.3127 259.837C61.6011 260.016 61.9756 260.105 62.4363 260.105C62.9069 260.105 63.3096 260.009 63.6444 259.817C63.9791 259.621 64.1465 259.306 64.1465 258.872C64.1465 258.617 64.0835 258.395 63.9576 258.206C63.8316 258.014 63.6543 257.865 63.4256 257.759C63.1969 257.652 62.9268 257.599 62.6153 257.599H61.3028V256.545H62.6153C63.0826 256.545 63.4273 256.439 63.6493 256.227C63.8747 256.015 63.9874 255.75 63.9874 255.432C63.9874 255.09 63.8664 254.817 63.6245 254.612C63.3825 254.403 63.0395 254.298 62.5954 254.298C62.1479 254.298 61.7751 254.399 61.4768 254.602C61.1785 254.8 61.021 255.057 61.0045 255.372H59.7715C59.7848 254.961 59.9107 254.598 60.1493 254.283C60.388 253.965 60.7128 253.717 61.1238 253.538C61.5348 253.355 62.0054 253.264 62.5357 253.264C63.0726 253.264 63.5383 253.359 63.9327 253.548C64.3305 253.733 64.637 253.987 64.8525 254.308C65.0712 254.626 65.1806 254.988 65.1806 255.392C65.1806 255.823 65.0596 256.171 64.8177 256.436C64.5757 256.701 64.2725 256.89 63.9079 257.003V257.082C64.1962 257.102 64.4465 257.195 64.6586 257.361C64.874 257.523 65.0414 257.737 65.1607 258.002C65.28 258.264 65.3397 258.554 65.3397 258.872C65.3397 259.336 65.2154 259.741 64.9668 260.085C64.7182 260.427 64.3769 260.692 63.9427 260.881C63.5085 261.066 63.013 261.159 62.4562 261.159C61.9159 261.159 61.432 261.071 61.0045 260.896C60.5769 260.717 60.2372 260.47 59.9853 260.155C59.7367 259.837 59.6058 259.469 59.5925 259.051ZM75.6161 256.645V257.739H71.4002V256.645H75.6161ZM71.6786 253.364V261H70.5053V253.364H71.6786ZM76.511 253.364V261H75.3377V253.364H76.511ZM81.6454 261.159C80.9096 261.159 80.2749 260.997 79.7413 260.672C79.211 260.344 78.8017 259.886 78.5133 259.3C78.2283 258.71 78.0858 258.024 78.0858 257.241C78.0858 256.459 78.2283 255.77 78.5133 255.173C78.8017 254.573 79.2027 254.106 79.7164 253.771C80.2335 253.433 80.8367 253.264 81.5261 253.264C81.9238 253.264 82.3166 253.33 82.7044 253.463C83.0921 253.596 83.4451 253.811 83.7633 254.109C84.0815 254.404 84.335 254.795 84.524 255.283C84.7129 255.77 84.8073 256.37 84.8073 257.082V257.58H78.921V256.565H83.6142C83.6142 256.134 83.528 255.75 83.3556 255.412C83.1866 255.074 82.9447 254.807 82.6298 254.612C82.3182 254.416 81.9503 254.318 81.5261 254.318C81.0588 254.318 80.6544 254.434 80.313 254.666C79.975 254.895 79.7148 255.193 79.5325 255.561C79.3502 255.929 79.259 256.323 79.259 256.744V257.42C79.259 257.997 79.3585 258.486 79.5573 258.887C79.7595 259.285 80.0396 259.588 80.3975 259.797C80.7555 260.002 81.1715 260.105 81.6454 260.105C81.9536 260.105 82.2321 260.062 82.4806 259.976C82.7325 259.886 82.9496 259.754 83.1319 259.578C83.3142 259.399 83.4551 259.177 83.5545 258.912L84.688 259.23C84.5687 259.615 84.3682 259.953 84.0865 260.244C83.8047 260.533 83.4567 260.758 83.0424 260.92C82.6281 261.08 82.1625 261.159 81.6454 261.159ZM89.4844 261.159C88.7685 261.159 88.152 260.99 87.635 260.652C87.1179 260.314 86.7202 259.848 86.4418 259.255C86.1634 258.662 86.0242 257.984 86.0242 257.222C86.0242 256.446 86.1667 255.762 86.4517 255.168C86.7401 254.572 87.1411 254.106 87.6549 253.771C88.1719 253.433 88.7751 253.264 89.4645 253.264C90.0015 253.264 90.4854 253.364 90.9162 253.562C91.3471 253.761 91.7001 254.04 91.9752 254.398C92.2503 254.756 92.421 255.173 92.4873 255.651H91.314C91.2245 255.303 91.0256 254.994 90.7174 254.726C90.4124 254.454 90.0015 254.318 89.4844 254.318C89.027 254.318 88.626 254.437 88.2813 254.676C87.9399 254.911 87.6731 255.245 87.4809 255.675C87.2919 256.103 87.1975 256.605 87.1975 257.182C87.1975 257.772 87.2903 258.286 87.4759 258.723C87.6648 259.161 87.93 259.5 88.2713 259.742C88.616 259.984 89.0204 260.105 89.4844 260.105C89.7893 260.105 90.0661 260.052 90.3147 259.946C90.5633 259.84 90.7737 259.688 90.9461 259.489C91.1184 259.29 91.241 259.051 91.314 258.773H92.4873C92.421 259.223 92.2569 259.629 91.9951 259.991C91.7365 260.349 91.3935 260.634 90.966 260.846C90.5417 261.055 90.0479 261.159 89.4844 261.159ZM93.9925 261V253.364H95.1658V256.685H95.9413L98.6856 253.364H100.197L97.1146 257.043L100.237 261H98.7254L96.2197 257.778H95.1658V261H93.9925ZM104.09 261.159C103.4 261.159 102.796 260.995 102.275 260.667C101.758 260.339 101.354 259.88 101.062 259.29C100.774 258.7 100.63 258.01 100.63 257.222C100.63 256.426 100.774 255.732 101.062 255.138C101.354 254.545 101.758 254.085 102.275 253.756C102.796 253.428 103.4 253.264 104.09 253.264C104.779 253.264 105.382 253.428 105.899 253.756C106.42 254.085 106.824 254.545 107.113 255.138C107.404 255.732 107.55 256.426 107.55 257.222C107.55 258.01 107.404 258.7 107.113 259.29C106.824 259.88 106.42 260.339 105.899 260.667C105.382 260.995 104.779 261.159 104.09 261.159ZM104.09 260.105C104.613 260.105 105.044 259.971 105.382 259.702C105.72 259.434 105.971 259.081 106.133 258.643C106.296 258.206 106.377 257.732 106.377 257.222C106.377 256.711 106.296 256.236 106.133 255.795C105.971 255.354 105.72 254.998 105.382 254.726C105.044 254.454 104.613 254.318 104.09 254.318C103.566 254.318 103.135 254.454 102.797 254.726C102.459 254.998 102.209 255.354 102.046 255.795C101.884 256.236 101.803 256.711 101.803 257.222C101.803 257.732 101.884 258.206 102.046 258.643C102.209 259.081 102.459 259.434 102.797 259.702C103.135 259.971 103.566 260.105 104.09 260.105ZM108.455 261V259.906H108.733C108.962 259.906 109.153 259.862 109.305 259.772C109.458 259.679 109.58 259.518 109.673 259.29C109.769 259.058 109.842 258.736 109.892 258.325C109.945 257.911 109.983 257.384 110.006 256.744L110.145 253.364H115.236V261H114.063V254.457H111.259L111.14 257.182C111.113 257.808 111.057 258.36 110.971 258.837C110.888 259.311 110.76 259.709 110.588 260.031C110.419 260.352 110.193 260.594 109.912 260.756C109.63 260.919 109.277 261 108.853 261H108.455ZM118.193 256.128H120.381C121.275 256.128 121.96 256.355 122.434 256.809C122.908 257.263 123.145 257.838 123.145 258.534C123.145 258.991 123.039 259.407 122.827 259.782C122.614 260.153 122.303 260.45 121.892 260.672C121.481 260.891 120.977 261 120.381 261H117.179V253.364H118.352V259.906H120.381C120.845 259.906 121.226 259.784 121.524 259.538C121.822 259.293 121.971 258.978 121.971 258.594C121.971 258.189 121.822 257.86 121.524 257.604C121.226 257.349 120.845 257.222 120.381 257.222H118.193V256.128ZM124.721 261V253.364H125.894V256.685H126.67L129.414 253.364H130.925L127.843 257.043L130.965 261H129.454L126.948 257.778H125.894V261H124.721ZM134.818 261.159C134.129 261.159 133.524 260.995 133.004 260.667C132.486 260.339 132.082 259.88 131.79 259.29C131.502 258.7 131.358 258.01 131.358 257.222C131.358 256.426 131.502 255.732 131.79 255.138C132.082 254.545 132.486 254.085 133.004 253.756C133.524 253.428 134.129 253.264 134.818 253.264C135.508 253.264 136.111 253.428 136.628 253.756C137.148 254.085 137.553 254.545 137.841 255.138C138.133 255.732 138.278 256.426 138.278 257.222C138.278 258.01 138.133 258.7 137.841 259.29C137.553 259.88 137.148 260.339 136.628 260.667C136.111 260.995 135.508 261.159 134.818 261.159ZM134.818 260.105C135.342 260.105 135.773 259.971 136.111 259.702C136.449 259.434 136.699 259.081 136.861 258.643C137.024 258.206 137.105 257.732 137.105 257.222C137.105 256.711 137.024 256.236 136.861 255.795C136.699 255.354 136.449 254.998 136.111 254.726C135.773 254.454 135.342 254.318 134.818 254.318C134.294 254.318 133.864 254.454 133.526 254.726C133.187 254.998 132.937 255.354 132.775 255.795C132.612 256.236 132.531 256.711 132.531 257.222C132.531 257.732 132.612 258.206 132.775 258.643C132.937 259.081 133.187 259.434 133.526 259.702C133.864 259.971 134.294 260.105 134.818 260.105ZM146.689 261.159C145.973 261.159 145.357 260.99 144.84 260.652C144.323 260.314 143.925 259.848 143.647 259.255C143.368 258.662 143.229 257.984 143.229 257.222C143.229 256.446 143.371 255.762 143.657 255.168C143.945 254.572 144.346 254.106 144.86 253.771C145.377 253.433 145.98 253.264 146.669 253.264C147.206 253.264 147.69 253.364 148.121 253.562C148.552 253.761 148.905 254.04 149.18 254.398C149.455 254.756 149.626 255.173 149.692 255.651H148.519C148.429 255.303 148.23 254.994 147.922 254.726C147.617 254.454 147.206 254.318 146.689 254.318C146.232 254.318 145.831 254.437 145.486 254.676C145.145 254.911 144.878 255.245 144.686 255.675C144.497 256.103 144.402 256.605 144.402 257.182C144.402 257.772 144.495 258.286 144.681 258.723C144.87 259.161 145.135 259.5 145.476 259.742C145.821 259.984 146.225 260.105 146.689 260.105C146.994 260.105 147.271 260.052 147.519 259.946C147.768 259.84 147.978 259.688 148.151 259.489C148.323 259.29 148.446 259.051 148.519 258.773H149.692C149.626 259.223 149.462 259.629 149.2 259.991C148.941 260.349 148.598 260.634 148.171 260.846C147.746 261.055 147.253 261.159 146.689 261.159ZM154.399 261.159C153.663 261.159 153.028 260.997 152.495 260.672C151.965 260.344 151.555 259.886 151.267 259.3C150.982 258.71 150.839 258.024 150.839 257.241C150.839 256.459 150.982 255.77 151.267 255.173C151.555 254.573 151.956 254.106 152.47 253.771C152.987 253.433 153.59 253.264 154.28 253.264C154.677 253.264 155.07 253.33 155.458 253.463C155.846 253.596 156.199 253.811 156.517 254.109C156.835 254.404 157.089 254.795 157.277 255.283C157.466 255.77 157.561 256.37 157.561 257.082V257.58H151.674V256.565H156.368C156.368 256.134 156.282 255.75 156.109 255.412C155.94 255.074 155.698 254.807 155.383 254.612C155.072 254.416 154.704 254.318 154.28 254.318C153.812 254.318 153.408 254.434 153.067 254.666C152.728 254.895 152.468 255.193 152.286 255.561C152.104 255.929 152.013 256.323 152.013 256.744V257.42C152.013 257.997 152.112 258.486 152.311 258.887C152.513 259.285 152.793 259.588 153.151 259.797C153.509 260.002 153.925 260.105 154.399 260.105C154.707 260.105 154.986 260.062 155.234 259.976C155.486 259.886 155.703 259.754 155.885 259.578C156.068 259.399 156.209 259.177 156.308 258.912L157.442 259.23C157.322 259.615 157.122 259.953 156.84 260.244C156.558 260.533 156.21 260.758 155.796 260.92C155.382 261.08 154.916 261.159 154.399 261.159ZM159.136 261V253.364H160.309V256.685H161.085L163.829 253.364H165.34L162.258 257.043L165.38 261H163.869L161.363 257.778H160.309V261H159.136ZM167.201 263.864C167.002 263.864 166.825 263.847 166.669 263.814C166.513 263.784 166.405 263.754 166.346 263.724L166.644 262.69C166.929 262.763 167.181 262.79 167.4 262.77C167.618 262.75 167.812 262.652 167.981 262.477C168.154 262.304 168.311 262.024 168.454 261.636L168.672 261.04L165.849 253.364H167.121L169.229 259.449H169.309L171.417 253.364H172.69L169.448 262.114C169.302 262.508 169.122 262.835 168.906 263.093C168.691 263.355 168.44 263.549 168.155 263.675C167.874 263.801 167.556 263.864 167.201 263.864ZM179.139 256.645V257.739H174.923V256.645H179.139ZM175.201 253.364V261H174.028V253.364H175.201ZM180.034 253.364V261H178.861V253.364H180.034ZM181.151 263.188V259.906H181.788C181.943 259.744 182.078 259.568 182.19 259.379C182.303 259.19 182.401 258.967 182.484 258.708C182.57 258.446 182.643 258.128 182.702 257.754C182.762 257.376 182.815 256.92 182.861 256.386L183.12 253.364H187.972V259.906H189.146V263.188H187.972V261H182.325V263.188H181.151ZM183.12 259.906H186.799V254.457H184.214L184.015 256.386C183.932 257.185 183.829 257.883 183.707 258.479C183.584 259.076 183.388 259.552 183.12 259.906ZM194.22 261V253.364H197.343C198.165 253.364 198.817 253.549 199.301 253.92C199.785 254.292 200.027 254.782 200.027 255.392C200.027 255.856 199.89 256.216 199.615 256.471C199.34 256.723 198.987 256.893 198.556 256.983C198.837 257.023 199.111 257.122 199.376 257.281C199.644 257.44 199.866 257.659 200.042 257.938C200.218 258.213 200.306 258.551 200.306 258.952C200.306 259.343 200.206 259.692 200.007 260.001C199.808 260.309 199.523 260.553 199.152 260.732C198.781 260.911 198.337 261 197.82 261H194.22ZM195.334 259.926H197.82C198.224 259.926 198.541 259.83 198.769 259.638C198.998 259.446 199.112 259.184 199.112 258.852C199.112 258.458 198.998 258.148 198.769 257.923C198.541 257.694 198.224 257.58 197.82 257.58H195.334V259.926ZM195.334 256.565H197.343C197.657 256.565 197.928 256.522 198.153 256.436C198.378 256.347 198.551 256.221 198.67 256.058C198.793 255.893 198.854 255.697 198.854 255.472C198.854 255.15 198.72 254.898 198.451 254.716C198.183 254.53 197.813 254.438 197.343 254.438H195.334V256.565ZM202.886 256.128H205.073C205.968 256.128 206.653 256.355 207.127 256.809C207.601 257.263 207.838 257.838 207.838 258.534C207.838 258.991 207.732 259.407 207.519 259.782C207.307 260.153 206.996 260.45 206.585 260.672C206.174 260.891 205.67 261 205.073 261H201.872V253.364H203.045V259.906H205.073C205.537 259.906 205.919 259.784 206.217 259.538C206.515 259.293 206.664 258.978 206.664 258.594C206.664 258.189 206.515 257.86 206.217 257.604C205.919 257.349 205.537 257.222 205.073 257.222H202.886V256.128ZM209.051 261V253.364H210.224V261H209.051ZM221.557 250.5L222.153 251.216C221.921 251.441 221.653 251.599 221.348 251.688C221.043 251.778 220.698 251.832 220.314 251.852C219.929 251.872 219.502 251.892 219.031 251.912C218.501 251.932 218.062 252.061 217.714 252.3C217.366 252.538 217.097 252.883 216.908 253.334C216.72 253.785 216.599 254.338 216.545 254.994H216.645C216.903 254.517 217.261 254.166 217.719 253.94C218.176 253.715 218.667 253.602 219.19 253.602C219.787 253.602 220.324 253.741 220.801 254.02C221.278 254.298 221.656 254.711 221.935 255.258C222.213 255.805 222.352 256.479 222.352 257.281C222.352 258.08 222.21 258.769 221.925 259.349C221.643 259.929 221.247 260.377 220.737 260.692C220.229 261.003 219.635 261.159 218.952 261.159C218.269 261.159 217.671 260.998 217.157 260.677C216.643 260.352 216.244 259.871 215.959 259.235C215.674 258.595 215.531 257.805 215.531 256.864V256.048C215.531 254.348 215.82 253.059 216.396 252.18C216.976 251.302 217.848 250.848 219.011 250.818C219.422 250.805 219.789 250.802 220.11 250.808C220.432 250.815 220.712 250.8 220.95 250.763C221.189 250.727 221.391 250.639 221.557 250.5ZM218.952 260.105C219.412 260.105 219.809 259.989 220.14 259.757C220.475 259.525 220.732 259.199 220.911 258.778C221.09 258.353 221.179 257.855 221.179 257.281C221.179 256.724 221.088 256.25 220.906 255.859C220.727 255.468 220.47 255.17 220.135 254.964C219.8 254.759 219.399 254.656 218.932 254.656C218.59 254.656 218.284 254.714 218.012 254.83C217.74 254.946 217.508 255.117 217.316 255.342C217.124 255.568 216.975 255.843 216.869 256.168C216.766 256.492 216.711 256.864 216.705 257.281C216.705 258.136 216.905 258.821 217.306 259.335C217.707 259.848 218.256 260.105 218.952 260.105ZM224.693 263.864C224.494 263.864 224.317 263.847 224.161 263.814C224.005 263.784 223.897 263.754 223.838 263.724L224.136 262.69C224.421 262.763 224.673 262.79 224.892 262.77C225.11 262.75 225.304 262.652 225.473 262.477C225.646 262.304 225.803 262.024 225.946 261.636L226.164 261.04L223.34 253.364H224.613L226.721 259.449H226.801L228.909 253.364H230.181L226.94 262.114C226.794 262.508 226.613 262.835 226.398 263.093C226.183 263.355 225.932 263.549 225.647 263.675C225.366 263.801 225.047 263.864 224.693 263.864ZM230.062 263.188V259.906H230.698C230.854 259.744 230.988 259.568 231.101 259.379C231.214 259.19 231.312 258.967 231.394 258.708C231.481 258.446 231.554 258.128 231.613 257.754C231.673 257.376 231.726 256.92 231.772 256.386L232.031 253.364H236.883V259.906H238.056V263.188H236.883V261H231.235V263.188H230.062ZM232.031 259.906H235.71V254.457H233.125L232.926 256.386C232.843 257.185 232.74 257.883 232.618 258.479C232.495 259.076 232.299 259.552 232.031 259.906ZM242.605 261.159C241.87 261.159 241.235 260.997 240.701 260.672C240.171 260.344 239.762 259.886 239.473 259.3C239.188 258.71 239.046 258.024 239.046 257.241C239.046 256.459 239.188 255.77 239.473 255.173C239.762 254.573 240.163 254.106 240.677 253.771C241.194 253.433 241.797 253.264 242.486 253.264C242.884 253.264 243.277 253.33 243.664 253.463C244.052 253.596 244.405 253.811 244.723 254.109C245.042 254.404 245.295 254.795 245.484 255.283C245.673 255.77 245.767 256.37 245.767 257.082V257.58H239.881V256.565H244.574C244.574 256.134 244.488 255.75 244.316 255.412C244.147 255.074 243.905 254.807 243.59 254.612C243.278 254.416 242.91 254.318 242.486 254.318C242.019 254.318 241.614 254.434 241.273 254.666C240.935 254.895 240.675 255.193 240.493 255.561C240.31 255.929 240.219 256.323 240.219 256.744V257.42C240.219 257.997 240.319 258.486 240.517 258.887C240.72 259.285 241 259.588 241.358 259.797C241.716 260.002 242.132 260.105 242.605 260.105C242.914 260.105 243.192 260.062 243.441 259.976C243.693 259.886 243.91 259.754 244.092 259.578C244.274 259.399 244.415 259.177 244.515 258.912L245.648 259.23C245.529 259.615 245.328 259.953 245.047 260.244C244.765 260.533 244.417 260.758 244.003 260.92C243.588 261.08 243.123 261.159 242.605 261.159ZM246.631 254.457V253.364H252.836V254.457H250.33V261H249.157V254.457H246.631ZM257.143 261.159C256.407 261.159 255.772 260.997 255.238 260.672C254.708 260.344 254.299 259.886 254.01 259.3C253.725 258.71 253.583 258.024 253.583 257.241C253.583 256.459 253.725 255.77 254.01 255.173C254.299 254.573 254.7 254.106 255.214 253.771C255.731 253.433 256.334 253.264 257.023 253.264C257.421 253.264 257.814 253.33 258.201 253.463C258.589 253.596 258.942 253.811 259.26 254.109C259.579 254.404 259.832 254.795 260.021 255.283C260.21 255.77 260.304 256.37 260.304 257.082V257.58H254.418V256.565H259.111C259.111 256.134 259.025 255.75 258.853 255.412C258.684 255.074 258.442 254.807 258.127 254.612C257.815 254.416 257.447 254.318 257.023 254.318C256.556 254.318 256.152 254.434 255.81 254.666C255.472 254.895 255.212 255.193 255.03 255.561C254.847 255.929 254.756 256.323 254.756 256.744V257.42C254.756 257.997 254.856 258.486 255.054 258.887C255.257 259.285 255.537 259.588 255.895 259.797C256.253 260.002 256.669 260.105 257.143 260.105C257.451 260.105 257.729 260.062 257.978 259.976C258.23 259.886 258.447 259.754 258.629 259.578C258.811 259.399 258.952 259.177 259.052 258.912L260.185 259.23C260.066 259.615 259.865 259.953 259.584 260.244C259.302 260.533 258.954 260.758 258.54 260.92C258.125 261.08 257.66 261.159 257.143 261.159ZM26.0739 278V270.364H32.0795V278H30.9062V271.457H27.2472V278H26.0739ZM37.214 278.159C36.4782 278.159 35.8435 277.997 35.3099 277.672C34.7796 277.344 34.3703 276.886 34.0819 276.3C33.7969 275.71 33.6543 275.024 33.6543 274.241C33.6543 273.459 33.7969 272.77 34.0819 272.173C34.3703 271.573 34.7713 271.106 35.285 270.771C35.8021 270.433 36.4053 270.264 37.0947 270.264C37.4924 270.264 37.8852 270.33 38.273 270.463C38.6607 270.596 39.0137 270.811 39.3319 271.109C39.6501 271.404 39.9036 271.795 40.0926 272.283C40.2815 272.77 40.3759 273.37 40.3759 274.082V274.58H34.4896V273.565H39.1828C39.1828 273.134 39.0966 272.75 38.9242 272.412C38.7552 272.074 38.5132 271.807 38.1984 271.612C37.8868 271.416 37.5189 271.318 37.0947 271.318C36.6274 271.318 36.223 271.434 35.8816 271.666C35.5436 271.895 35.2834 272.193 35.1011 272.561C34.9188 272.929 34.8276 273.323 34.8276 273.744V274.42C34.8276 274.997 34.9271 275.486 35.1259 275.887C35.3281 276.285 35.6082 276.588 35.9661 276.797C36.3241 277.002 36.74 277.105 37.214 277.105C37.5222 277.105 37.8007 277.062 38.0492 276.976C38.3011 276.886 38.5182 276.754 38.7005 276.578C38.8828 276.399 39.0237 276.177 39.1231 275.912L40.2566 276.23C40.1373 276.615 39.9368 276.953 39.6551 277.244C39.3733 277.533 39.0253 277.758 38.611 277.92C38.1967 278.08 37.7311 278.159 37.214 278.159ZM41.9507 280.864V270.364H43.0843V271.577H43.2235C43.3096 271.444 43.429 271.275 43.5814 271.07C43.7372 270.861 43.9593 270.675 44.2476 270.513C44.5393 270.347 44.9337 270.264 45.4309 270.264C46.0738 270.264 46.6406 270.425 47.1311 270.746C47.6217 271.068 48.0045 271.524 48.2796 272.114C48.5547 272.704 48.6922 273.4 48.6922 274.202C48.6922 275.01 48.5547 275.711 48.2796 276.305C48.0045 276.895 47.6233 277.352 47.1361 277.677C46.6489 277.998 46.0871 278.159 45.4507 278.159C44.9602 278.159 44.5675 278.078 44.2725 277.915C43.9775 277.75 43.7505 277.562 43.5914 277.354C43.4323 277.142 43.3096 276.966 43.2235 276.827H43.124V280.864H41.9507ZM43.1041 274.182C43.1041 274.759 43.1887 275.267 43.3577 275.708C43.5267 276.146 43.7737 276.489 44.0985 276.737C44.4233 276.982 44.821 277.105 45.2916 277.105C45.7822 277.105 46.1915 276.976 46.5196 276.717C46.8511 276.455 47.0996 276.104 47.2654 275.663C47.4344 275.219 47.5189 274.725 47.5189 274.182C47.5189 273.645 47.4361 273.161 47.2703 272.73C47.1079 272.296 46.861 271.953 46.5296 271.701C46.2014 271.446 45.7888 271.318 45.2916 271.318C44.8144 271.318 44.4133 271.439 44.0885 271.681C43.7637 271.92 43.5184 272.254 43.3527 272.685C43.187 273.113 43.1041 273.612 43.1041 274.182ZM53.4737 278.159C52.7379 278.159 52.1032 277.997 51.5696 277.672C51.0393 277.344 50.6299 276.886 50.3416 276.3C50.0566 275.71 49.914 275.024 49.914 274.241C49.914 273.459 50.0566 272.77 50.3416 272.173C50.6299 271.573 51.031 271.106 51.5447 270.771C52.0618 270.433 52.665 270.264 53.3544 270.264C53.7521 270.264 54.1449 270.33 54.5326 270.463C54.9204 270.596 55.2734 270.811 55.5916 271.109C55.9098 271.404 56.1633 271.795 56.3522 272.283C56.5412 272.77 56.6356 273.37 56.6356 274.082V274.58H50.7493V273.565H55.4424C55.4424 273.134 55.3563 272.75 55.1839 272.412C55.0149 272.074 54.7729 271.807 54.4581 271.612C54.1465 271.416 53.7786 271.318 53.3544 271.318C52.887 271.318 52.4827 271.434 52.1413 271.666C51.8032 271.895 51.5431 272.193 51.3608 272.561C51.1785 272.929 51.0873 273.323 51.0873 273.744V274.42C51.0873 274.997 51.1868 275.486 51.3856 275.887C51.5878 276.285 51.8679 276.588 52.2258 276.797C52.5838 277.002 52.9997 277.105 53.4737 277.105C53.7819 277.105 54.0603 277.062 54.3089 276.976C54.5608 276.886 54.7779 276.754 54.9602 276.578C55.1425 276.399 55.2834 276.177 55.3828 275.912L56.5163 276.23C56.397 276.615 56.1965 276.953 55.9147 277.244C55.633 277.533 55.285 277.758 54.8707 277.92C54.4564 278.08 53.9907 278.159 53.4737 278.159ZM63.3212 273.645V274.739H59.1053V273.645H63.3212ZM59.3837 270.364V278H58.2104V270.364H59.3837ZM64.2161 270.364V278H63.0428V270.364H64.2161ZM68.396 278.179C67.9121 278.179 67.473 278.088 67.0786 277.906C66.6841 277.72 66.3709 277.453 66.1389 277.105C65.9069 276.754 65.7909 276.33 65.7909 275.832C65.7909 275.395 65.8771 275.04 66.0494 274.768C66.2218 274.493 66.4521 274.278 66.7405 274.122C67.0288 273.966 67.347 273.85 67.695 273.774C68.0464 273.695 68.3993 273.632 68.754 273.585C69.218 273.526 69.5942 273.481 69.8825 273.451C70.1742 273.418 70.3863 273.363 70.5189 273.287C70.6548 273.211 70.7227 273.078 70.7227 272.889V272.849C70.7227 272.359 70.5885 271.978 70.32 271.706C70.0549 271.434 69.6522 271.298 69.1119 271.298C68.5518 271.298 68.1126 271.421 67.7945 271.666C67.4763 271.911 67.2526 272.173 67.1233 272.452L66.0097 272.054C66.2085 271.59 66.4737 271.229 66.8051 270.97C67.1399 270.708 67.5045 270.526 67.8989 270.423C68.2966 270.317 68.6877 270.264 69.0722 270.264C69.3174 270.264 69.5991 270.294 69.9173 270.354C70.2388 270.41 70.5487 270.528 70.847 270.707C71.1486 270.886 71.3989 271.156 71.5977 271.517C71.7966 271.878 71.896 272.362 71.896 272.969V278H70.7227V276.966H70.6631C70.5835 277.132 70.4509 277.309 70.2653 277.498C70.0797 277.687 69.8328 277.848 69.5246 277.98C69.2163 278.113 68.8402 278.179 68.396 278.179ZM68.575 277.125C69.039 277.125 69.4301 277.034 69.7483 276.852C70.0698 276.669 70.3117 276.434 70.4741 276.146C70.6399 275.857 70.7227 275.554 70.7227 275.236V274.162C70.673 274.222 70.5636 274.276 70.3946 274.326C70.2289 274.372 70.0366 274.414 69.8179 274.45C69.6025 274.483 69.392 274.513 69.1865 274.54C68.9843 274.563 68.8203 274.583 68.6943 274.599C68.3894 274.639 68.1044 274.704 67.8392 274.793C67.5774 274.879 67.3652 275.01 67.2028 275.186C67.0438 275.358 66.9642 275.594 66.9642 275.892C66.9642 276.3 67.115 276.608 67.4166 276.817C67.7215 277.022 68.1077 277.125 68.575 277.125ZM73.8275 278V270.364H79.8332V278H78.6599V271.457H75.0008V278H73.8275ZM81.766 280.864V270.364H82.8995V271.577H83.0387C83.1249 271.444 83.2442 271.275 83.3967 271.07C83.5524 270.861 83.7745 270.675 84.0628 270.513C84.3545 270.347 84.7489 270.264 85.2461 270.264C85.8891 270.264 86.4558 270.425 86.9464 270.746C87.4369 271.068 87.8197 271.524 88.0948 272.114C88.3699 272.704 88.5074 273.4 88.5074 274.202C88.5074 275.01 88.3699 275.711 88.0948 276.305C87.8197 276.895 87.4386 277.352 86.9513 277.677C86.4641 277.998 85.9023 278.159 85.266 278.159C84.7754 278.159 84.3827 278.078 84.0877 277.915C83.7927 277.75 83.5657 277.562 83.4066 277.354C83.2475 277.142 83.1249 276.966 83.0387 276.827H82.9393V280.864H81.766ZM82.9194 274.182C82.9194 274.759 83.0039 275.267 83.1729 275.708C83.342 276.146 83.5889 276.489 83.9137 276.737C84.2385 276.982 84.6362 277.105 85.1069 277.105C85.5974 277.105 86.0067 276.976 86.3349 276.717C86.6663 276.455 86.9149 276.104 87.0806 275.663C87.2496 275.219 87.3342 274.725 87.3342 274.182C87.3342 273.645 87.2513 273.161 87.0856 272.73C86.9232 272.296 86.6762 271.953 86.3448 271.701C86.0167 271.446 85.604 271.318 85.1069 271.318C84.6296 271.318 84.2286 271.439 83.9038 271.681C83.5789 271.92 83.3337 272.254 83.168 272.685C83.0022 273.113 82.9194 273.612 82.9194 274.182ZM92.3344 278.179C91.8505 278.179 91.4113 278.088 91.0169 277.906C90.6225 277.72 90.3093 277.453 90.0773 277.105C89.8453 276.754 89.7293 276.33 89.7293 275.832C89.7293 275.395 89.8154 275.04 89.9878 274.768C90.1601 274.493 90.3905 274.278 90.6788 274.122C90.9672 273.966 91.2854 273.85 91.6334 273.774C91.9847 273.695 92.3377 273.632 92.6923 273.585C93.1564 273.526 93.5325 273.481 93.8209 273.451C94.1126 273.418 94.3247 273.363 94.4573 273.287C94.5931 273.211 94.6611 273.078 94.6611 272.889V272.849C94.6611 272.359 94.5269 271.978 94.2584 271.706C93.9932 271.434 93.5905 271.298 93.0503 271.298C92.4902 271.298 92.051 271.421 91.7328 271.666C91.4146 271.911 91.1909 272.173 91.0617 272.452L89.948 272.054C90.1469 271.59 90.412 271.229 90.7435 270.97C91.0782 270.708 91.4428 270.526 91.8372 270.423C92.235 270.317 92.626 270.264 93.0105 270.264C93.2558 270.264 93.5375 270.294 93.8557 270.354C94.1772 270.41 94.4871 270.528 94.7854 270.707C95.087 270.886 95.3372 271.156 95.5361 271.517C95.735 271.878 95.8344 272.362 95.8344 272.969V278H94.6611V276.966H94.6014C94.5219 277.132 94.3893 277.309 94.2037 277.498C94.0181 277.687 93.7712 277.848 93.4629 277.98C93.1547 278.113 92.7785 278.179 92.3344 278.179ZM92.5134 277.125C92.9774 277.125 93.3685 277.034 93.6867 276.852C94.0082 276.669 94.2501 276.434 94.4125 276.146C94.5782 275.857 94.6611 275.554 94.6611 275.236V274.162C94.6114 274.222 94.502 274.276 94.333 274.326C94.1672 274.372 93.975 274.414 93.7563 274.45C93.5408 274.483 93.3304 274.513 93.1249 274.54C92.9227 274.563 92.7586 274.583 92.6327 274.599C92.3278 274.639 92.0427 274.704 91.7776 274.793C91.5157 274.879 91.3036 275.01 91.1412 275.186C90.9821 275.358 90.9026 275.594 90.9026 275.892C90.9026 276.3 91.0534 276.608 91.355 276.817C91.6599 277.022 92.046 277.125 92.5134 277.125ZM97.7659 278V270.364H100.888C101.71 270.364 102.363 270.549 102.847 270.92C103.331 271.292 103.573 271.782 103.573 272.392C103.573 272.856 103.435 273.216 103.16 273.471C102.885 273.723 102.532 273.893 102.101 273.983C102.383 274.023 102.656 274.122 102.921 274.281C103.19 274.44 103.412 274.659 103.588 274.938C103.763 275.213 103.851 275.551 103.851 275.952C103.851 276.343 103.752 276.692 103.553 277.001C103.354 277.309 103.069 277.553 102.698 277.732C102.327 277.911 101.882 278 101.365 278H97.7659ZM98.8795 276.926H101.365C101.77 276.926 102.086 276.83 102.315 276.638C102.544 276.446 102.658 276.184 102.658 275.852C102.658 275.458 102.544 275.148 102.315 274.923C102.086 274.694 101.77 274.58 101.365 274.58H98.8795V276.926ZM98.8795 273.565H100.888C101.203 273.565 101.473 273.522 101.698 273.436C101.924 273.347 102.096 273.221 102.215 273.058C102.338 272.893 102.399 272.697 102.399 272.472C102.399 272.15 102.265 271.898 101.997 271.716C101.728 271.53 101.359 271.438 100.888 271.438H98.8795V273.565ZM104.741 278V276.906H105.019C105.248 276.906 105.439 276.862 105.591 276.772C105.744 276.679 105.866 276.518 105.959 276.29C106.055 276.058 106.128 275.736 106.178 275.325C106.231 274.911 106.269 274.384 106.292 273.744L106.431 270.364H111.522V278H110.349V271.457H107.545L107.426 274.182C107.399 274.808 107.343 275.36 107.257 275.837C107.174 276.311 107.046 276.709 106.874 277.031C106.705 277.352 106.479 277.594 106.198 277.756C105.916 277.919 105.563 278 105.139 278H104.741ZM116.667 278.159C115.931 278.159 115.296 277.997 114.763 277.672C114.232 277.344 113.823 276.886 113.535 276.3C113.25 275.71 113.107 275.024 113.107 274.241C113.107 273.459 113.25 272.77 113.535 272.173C113.823 271.573 114.224 271.106 114.738 270.771C115.255 270.433 115.858 270.264 116.547 270.264C116.945 270.264 117.338 270.33 117.726 270.463C118.113 270.596 118.466 270.811 118.785 271.109C119.103 271.404 119.356 271.795 119.545 272.283C119.734 272.77 119.829 273.37 119.829 274.082V274.58H113.942V273.565H118.635C118.635 273.134 118.549 272.75 118.377 272.412C118.208 272.074 117.966 271.807 117.651 271.612C117.34 271.416 116.972 271.318 116.547 271.318C116.08 271.318 115.676 271.434 115.334 271.666C114.996 271.895 114.736 272.193 114.554 272.561C114.372 272.929 114.28 273.323 114.28 273.744V274.42C114.28 274.997 114.38 275.486 114.579 275.887C114.781 276.285 115.061 276.588 115.419 276.797C115.777 277.002 116.193 277.105 116.667 277.105C116.975 277.105 117.253 277.062 117.502 276.976C117.754 276.886 117.971 276.754 118.153 276.578C118.336 276.399 118.476 276.177 118.576 275.912L119.709 276.23C119.59 276.615 119.39 276.953 119.108 277.244C118.826 277.533 118.478 277.758 118.064 277.92C117.649 278.08 117.184 278.159 116.667 278.159ZM126.514 273.645V274.739H122.298V273.645H126.514ZM122.577 270.364V278H121.403V270.364H122.577ZM127.409 270.364V278H126.236V270.364H127.409ZM130.356 273.128H132.544C133.438 273.128 134.123 273.355 134.597 273.809C135.071 274.263 135.308 274.838 135.308 275.534C135.308 275.991 135.202 276.407 134.99 276.782C134.778 277.153 134.466 277.45 134.055 277.672C133.644 277.891 133.14 278 132.544 278H129.342V270.364H130.515V276.906H132.544C133.008 276.906 133.389 276.784 133.687 276.538C133.985 276.293 134.135 275.978 134.135 275.594C134.135 275.189 133.985 274.86 133.687 274.604C133.389 274.349 133.008 274.222 132.544 274.222H130.356V273.128ZM136.521 278V270.364H137.694V278H136.521ZM148.47 273.645V274.739H144.254V273.645H148.47ZM144.533 270.364V278H143.359V270.364H144.533ZM149.365 270.364V278H148.192V270.364H149.365ZM153.545 278.179C153.061 278.179 152.622 278.088 152.228 277.906C151.833 277.72 151.52 277.453 151.288 277.105C151.056 276.754 150.94 276.33 150.94 275.832C150.94 275.395 151.026 275.04 151.198 274.768C151.371 274.493 151.601 274.278 151.889 274.122C152.178 273.966 152.496 273.85 152.844 273.774C153.195 273.695 153.548 273.632 153.903 273.585C154.367 273.526 154.743 273.481 155.032 273.451C155.323 273.418 155.535 273.363 155.668 273.287C155.804 273.211 155.872 273.078 155.872 272.889V272.849C155.872 272.359 155.737 271.978 155.469 271.706C155.204 271.434 154.801 271.298 154.261 271.298C153.701 271.298 153.262 271.421 152.943 271.666C152.625 271.911 152.402 272.173 152.272 272.452L151.159 272.054C151.358 271.59 151.623 271.229 151.954 270.97C152.289 270.708 152.653 270.526 153.048 270.423C153.446 270.317 153.837 270.264 154.221 270.264C154.466 270.264 154.748 270.294 155.066 270.354C155.388 270.41 155.698 270.528 155.996 270.707C156.298 270.886 156.548 271.156 156.747 271.517C156.946 271.878 157.045 272.362 157.045 272.969V278H155.872V276.966H155.812C155.733 277.132 155.6 277.309 155.414 277.498C155.229 277.687 154.982 277.848 154.674 277.98C154.365 278.113 153.989 278.179 153.545 278.179ZM153.724 277.125C154.188 277.125 154.579 277.034 154.897 276.852C155.219 276.669 155.461 276.434 155.623 276.146C155.789 275.857 155.872 275.554 155.872 275.236V274.162C155.822 274.222 155.713 274.276 155.544 274.326C155.378 274.372 155.186 274.414 154.967 274.45C154.751 274.483 154.541 274.513 154.335 274.54C154.133 274.563 153.969 274.583 153.843 274.599C153.538 274.639 153.253 274.704 152.988 274.793C152.726 274.879 152.514 275.01 152.352 275.186C152.193 275.358 152.113 275.594 152.113 275.892C152.113 276.3 152.264 276.608 152.566 276.817C152.871 277.022 153.257 277.125 153.724 277.125ZM167.417 270.364V271.457H163.877V278H162.704V270.364H167.417ZM167.601 278V276.906H167.879C168.108 276.906 168.299 276.862 168.451 276.772C168.604 276.679 168.726 276.518 168.819 276.29C168.915 276.058 168.988 275.736 169.038 275.325C169.091 274.911 169.129 274.384 169.152 273.744L169.291 270.364H174.382V278H173.209V271.457H170.405L170.286 274.182C170.259 274.808 170.203 275.36 170.117 275.837C170.034 276.311 169.906 276.709 169.734 277.031C169.565 277.352 169.339 277.594 169.058 277.756C168.776 277.919 168.423 278 167.999 278H167.601ZM178.572 278.179C178.088 278.179 177.649 278.088 177.255 277.906C176.86 277.72 176.547 277.453 176.315 277.105C176.083 276.754 175.967 276.33 175.967 275.832C175.967 275.395 176.053 275.04 176.226 274.768C176.398 274.493 176.628 274.278 176.917 274.122C177.205 273.966 177.523 273.85 177.871 273.774C178.223 273.695 178.576 273.632 178.93 273.585C179.394 273.526 179.77 273.481 180.059 273.451C180.35 273.418 180.562 273.363 180.695 273.287C180.831 273.211 180.899 273.078 180.899 272.889V272.849C180.899 272.359 180.765 271.978 180.496 271.706C180.231 271.434 179.828 271.298 179.288 271.298C178.728 271.298 178.289 271.421 177.971 271.666C177.652 271.911 177.429 272.173 177.299 272.452L176.186 272.054C176.385 271.59 176.65 271.229 176.981 270.97C177.316 270.708 177.681 270.526 178.075 270.423C178.473 270.317 178.864 270.264 179.248 270.264C179.494 270.264 179.775 270.294 180.094 270.354C180.415 270.41 180.725 270.528 181.023 270.707C181.325 270.886 181.575 271.156 181.774 271.517C181.973 271.878 182.072 272.362 182.072 272.969V278H180.899V276.966H180.839C180.76 277.132 180.627 277.309 180.442 277.498C180.256 277.687 180.009 277.848 179.701 277.98C179.393 278.113 179.016 278.179 178.572 278.179ZM178.751 277.125C179.215 277.125 179.606 277.034 179.924 276.852C180.246 276.669 180.488 276.434 180.65 276.146C180.816 275.857 180.899 275.554 180.899 275.236V274.162C180.849 274.222 180.74 274.276 180.571 274.326C180.405 274.372 180.213 274.414 179.994 274.45C179.779 274.483 179.568 274.513 179.363 274.54C179.161 274.563 178.996 274.583 178.87 274.599C178.566 274.639 178.281 274.704 178.015 274.793C177.754 274.879 177.541 275.01 177.379 275.186C177.22 275.358 177.14 275.594 177.14 275.892C177.14 276.3 177.291 276.608 177.593 276.817C177.898 277.022 178.284 277.125 178.751 277.125ZM184.004 278V270.364H187.126C187.948 270.364 188.601 270.549 189.085 270.92C189.569 271.292 189.811 271.782 189.811 272.392C189.811 272.856 189.673 273.216 189.398 273.471C189.123 273.723 188.77 273.893 188.339 273.983C188.621 274.023 188.894 274.122 189.159 274.281C189.428 274.44 189.65 274.659 189.825 274.938C190.001 275.213 190.089 275.551 190.089 275.952C190.089 276.343 189.989 276.692 189.791 277.001C189.592 277.309 189.307 277.553 188.936 277.732C188.564 277.911 188.12 278 187.603 278H184.004ZM185.117 276.926H187.603C188.007 276.926 188.324 276.83 188.553 276.638C188.781 276.446 188.896 276.184 188.896 275.852C188.896 275.458 188.781 275.148 188.553 274.923C188.324 274.694 188.007 274.58 187.603 274.58H185.117V276.926ZM185.117 273.565H187.126C187.441 273.565 187.711 273.522 187.936 273.436C188.162 273.347 188.334 273.221 188.453 273.058C188.576 272.893 188.637 272.697 188.637 272.472C188.637 272.15 188.503 271.898 188.235 271.716C187.966 271.53 187.597 271.438 187.126 271.438H185.117V273.565ZM196.766 273.645V274.739H192.55V273.645H196.766ZM192.828 270.364V278H191.655V270.364H192.828ZM197.661 270.364V278H196.487V270.364H197.661ZM200.076 280.864C199.877 280.864 199.7 280.847 199.544 280.814C199.388 280.784 199.28 280.754 199.221 280.724L199.519 279.69C199.804 279.763 200.056 279.79 200.275 279.77C200.493 279.75 200.687 279.652 200.856 279.477C201.029 279.304 201.186 279.024 201.329 278.636L201.547 278.04L198.723 270.364H199.996L202.104 276.449H202.184L204.292 270.364H205.564L202.323 279.114C202.177 279.508 201.996 279.835 201.781 280.093C201.566 280.355 201.315 280.549 201.03 280.675C200.749 280.801 200.43 280.864 200.076 280.864ZM210.562 273.705V274.798H206.525V273.705H210.562ZM207.519 270.364V278H206.346V270.364H207.519ZM212.909 278.159C212.219 278.159 211.614 277.995 211.094 277.667C210.577 277.339 210.173 276.88 209.881 276.29C209.593 275.7 209.448 275.01 209.448 274.222C209.448 273.426 209.593 272.732 209.881 272.138C210.173 271.545 210.577 271.085 211.094 270.756C211.614 270.428 212.219 270.264 212.909 270.264C213.598 270.264 214.201 270.428 214.718 270.756C215.239 271.085 215.643 271.545 215.931 272.138C216.223 272.732 216.369 273.426 216.369 274.222C216.369 275.01 216.223 275.7 215.931 276.29C215.643 276.88 215.239 277.339 214.718 277.667C214.201 277.995 213.598 278.159 212.909 278.159ZM212.909 277.105C213.432 277.105 213.863 276.971 214.201 276.702C214.539 276.434 214.79 276.081 214.952 275.643C215.114 275.206 215.196 274.732 215.196 274.222C215.196 273.711 215.114 273.236 214.952 272.795C214.79 272.354 214.539 271.998 214.201 271.726C213.863 271.454 213.432 271.318 212.909 271.318C212.385 271.318 211.954 271.454 211.616 271.726C211.278 271.998 211.028 272.354 210.865 272.795C210.703 273.236 210.622 273.711 210.622 274.222C210.622 274.732 210.703 275.206 210.865 275.643C211.028 276.081 211.278 276.434 211.616 276.702C211.954 276.971 212.385 277.105 212.909 277.105ZM224.898 278.159C224.182 278.159 223.565 277.99 223.048 277.652C222.531 277.314 222.134 276.848 221.855 276.255C221.577 275.662 221.438 274.984 221.438 274.222C221.438 273.446 221.58 272.762 221.865 272.168C222.153 271.572 222.554 271.106 223.068 270.771C223.585 270.433 224.188 270.264 224.878 270.264C225.415 270.264 225.899 270.364 226.33 270.562C226.76 270.761 227.113 271.04 227.389 271.398C227.664 271.756 227.834 272.173 227.901 272.651H226.727C226.638 272.303 226.439 271.994 226.131 271.726C225.826 271.454 225.415 271.318 224.898 271.318C224.44 271.318 224.039 271.437 223.695 271.676C223.353 271.911 223.086 272.245 222.894 272.675C222.705 273.103 222.611 273.605 222.611 274.182C222.611 274.772 222.704 275.286 222.889 275.723C223.078 276.161 223.343 276.5 223.685 276.742C224.029 276.984 224.434 277.105 224.898 277.105C225.203 277.105 225.479 277.052 225.728 276.946C225.977 276.84 226.187 276.688 226.359 276.489C226.532 276.29 226.654 276.051 226.727 275.773H227.901C227.834 276.223 227.67 276.629 227.408 276.991C227.15 277.349 226.807 277.634 226.379 277.846C225.955 278.055 225.461 278.159 224.898 278.159ZM228.804 271.457V270.364H235.009V271.457H232.503V278H231.33V271.457H228.804ZM236.51 280.864V270.364H237.644V271.577H237.783C237.869 271.444 237.988 271.275 238.141 271.07C238.297 270.861 238.519 270.675 238.807 270.513C239.099 270.347 239.493 270.264 239.99 270.264C240.633 270.264 241.2 270.425 241.691 270.746C242.181 271.068 242.564 271.524 242.839 272.114C243.114 272.704 243.252 273.4 243.252 274.202C243.252 275.01 243.114 275.711 242.839 276.305C242.564 276.895 242.183 277.352 241.696 277.677C241.208 277.998 240.647 278.159 240.01 278.159C239.52 278.159 239.127 278.078 238.832 277.915C238.537 277.75 238.31 277.562 238.151 277.354C237.992 277.142 237.869 276.966 237.783 276.827H237.684V280.864H236.51ZM237.664 274.182C237.664 274.759 237.748 275.267 237.917 275.708C238.086 276.146 238.333 276.489 238.658 276.737C238.983 276.982 239.381 277.105 239.851 277.105C240.342 277.105 240.751 276.976 241.079 276.717C241.411 276.455 241.659 276.104 241.825 275.663C241.994 275.219 242.078 274.725 242.078 274.182C242.078 273.645 241.996 273.161 241.83 272.73C241.667 272.296 241.421 271.953 241.089 271.701C240.761 271.446 240.348 271.318 239.851 271.318C239.374 271.318 238.973 271.439 238.648 271.681C238.323 271.92 238.078 272.254 237.912 272.685C237.747 273.113 237.664 273.612 237.664 274.182ZM247.079 278.179C246.595 278.179 246.156 278.088 245.761 277.906C245.367 277.72 245.054 277.453 244.822 277.105C244.59 276.754 244.474 276.33 244.474 275.832C244.474 275.395 244.56 275.04 244.732 274.768C244.904 274.493 245.135 274.278 245.423 274.122C245.711 273.966 246.03 273.85 246.378 273.774C246.729 273.695 247.082 273.632 247.437 273.585C247.901 273.526 248.277 273.481 248.565 273.451C248.857 273.418 249.069 273.363 249.202 273.287C249.337 273.211 249.405 273.078 249.405 272.889V272.849C249.405 272.359 249.271 271.978 249.003 271.706C248.738 271.434 248.335 271.298 247.795 271.298C247.234 271.298 246.795 271.421 246.477 271.666C246.159 271.911 245.935 272.173 245.806 272.452L244.692 272.054C244.891 271.59 245.156 271.229 245.488 270.97C245.823 270.708 246.187 270.526 246.582 270.423C246.979 270.317 247.37 270.264 247.755 270.264C248 270.264 248.282 270.294 248.6 270.354C248.921 270.41 249.231 270.528 249.53 270.707C249.831 270.886 250.082 271.156 250.28 271.517C250.479 271.878 250.579 272.362 250.579 272.969V278H249.405V276.966H249.346C249.266 277.132 249.134 277.309 248.948 277.498C248.762 277.687 248.515 277.848 248.207 277.98C247.899 278.113 247.523 278.179 247.079 278.179ZM247.258 277.125C247.722 277.125 248.113 277.034 248.431 276.852C248.752 276.669 248.994 276.434 249.157 276.146C249.323 275.857 249.405 275.554 249.405 275.236V274.162C249.356 274.222 249.246 274.276 249.077 274.326C248.912 274.372 248.719 274.414 248.501 274.45C248.285 274.483 248.075 274.513 247.869 274.54C247.667 274.563 247.503 274.583 247.377 274.599C247.072 274.639 246.787 274.704 246.522 274.793C246.26 274.879 246.048 275.01 245.886 275.186C245.726 275.358 245.647 275.594 245.647 275.892C245.647 276.3 245.798 276.608 246.099 276.817C246.404 277.022 246.79 277.125 247.258 277.125ZM257.621 273.645V274.739H253.405V273.645H257.621ZM253.683 270.364V278H252.51V270.364H253.683ZM258.516 270.364V278H257.343V270.364H258.516ZM261.622 276.27L265.301 270.364H266.653V278H265.48V272.094L261.821 278H260.449V270.364H261.622V276.27ZM274.598 270.364V276.906H275.672V280.466H274.498V278H268.592V270.364H269.765V276.906H273.425V270.364H274.598ZM278.025 280.864C277.826 280.864 277.648 280.847 277.493 280.814C277.337 280.784 277.229 280.754 277.169 280.724L277.468 279.69C277.753 279.763 278.005 279.79 278.223 279.77C278.442 279.75 278.636 279.652 278.805 279.477C278.977 279.304 279.135 279.024 279.277 278.636L279.496 278.04L276.672 270.364H277.945L280.053 276.449H280.133L282.24 270.364H283.513L280.272 279.114C280.126 279.508 279.945 279.835 279.73 280.093C279.514 280.355 279.264 280.549 278.979 280.675C278.697 280.801 278.379 280.864 278.025 280.864ZM285.228 278.08C284.983 278.08 284.773 277.992 284.597 277.816C284.421 277.64 284.334 277.43 284.334 277.185C284.334 276.939 284.421 276.729 284.597 276.553C284.773 276.378 284.983 276.29 285.228 276.29C285.474 276.29 285.684 276.378 285.86 276.553C286.035 276.729 286.123 276.939 286.123 277.185C286.123 277.347 286.082 277.496 285.999 277.632C285.919 277.768 285.812 277.877 285.676 277.96C285.543 278.04 285.394 278.08 285.228 278.08Z" fill="black"/>
<defs>
<filter id="filter0_d_90_1256" x="0" y="0" width="313" height="340" filterUnits="userSpaceOnUse" color-interpolation-filters="sRGB">
<feFlood flood-opacity="0" result="BackgroundImageFix"/>
<feColorMatrix in="SourceAlpha" type="matrix" values="0 0 0 0 0 0 0 0 0 0 0 0 0 0 0 0 0 0 127 0" result="hardAlpha"/>
<feOffset dy="4"/>
<feGaussianBlur stdDeviation="2"/>
<feComposite in2="hardAlpha" operator="out"/>
<feColorMatrix type="matrix" values="0 0 0 0 0 0 0 0 0 0 0 0 0 0 0 0 0 0 0.05 0"/>
<feBlend mode="normal" in2="BackgroundImageFix" result="effect1_dropShadow_90_1256"/>
<feBlend mode="normal" in="SourceGraphic" in2="effect1_dropShadow_90_1256" result="shape"/>
</filter>
<filter id="filter1_d_90_1256" x="92" y="40" width="134" height="129" filterUnits="userSpaceOnUse" color-interpolation-filters="sRGB">
<feFlood flood-opacity="0" result="BackgroundImageFix"/>
<feColorMatrix in="SourceAlpha" type="matrix" values="0 0 0 0 0 0 0 0 0 0 0 0 0 0 0 0 0 0 127 0" result="hardAlpha"/>
<feOffset dy="4"/>
<feGaussianBlur stdDeviation="2"/>
<feComposite in2="hardAlpha" operator="out"/>
<feColorMatrix type="matrix" values="0 0 0 0 0 0 0 0 0 0 0 0 0 0 0 0 0 0 0.05 0"/>
<feBlend mode="normal" in2="BackgroundImageFix" result="effect1_dropShadow_90_1256"/>
<feBlend mode="normal" in="SourceGraphic" in2="effect1_dropShadow_90_1256" result="shape"/>
</filter>
<filter id="filter2_d_90_1256" x="186" y="37" width="18" height="18" filterUnits="userSpaceOnUse" color-interpolation-filters="sRGB">
<feFlood flood-opacity="0" result="BackgroundImageFix"/>
<feColorMatrix in="SourceAlpha" type="matrix" values="0 0 0 0 0 0 0 0 0 0 0 0 0 0 0 0 0 0 127 0" result="hardAlpha"/>
<feOffset dy="4"/>
<feGaussianBlur stdDeviation="2"/>
<feComposite in2="hardAlpha" operator="out"/>
<feColorMatrix type="matrix" values="0 0 0 0 0 0 0 0 0 0 0 0 0 0 0 0 0 0 0.05 0"/>
<feBlend mode="normal" in2="BackgroundImageFix" result="effect1_dropShadow_90_1256"/>
<feBlend mode="normal" in="SourceGraphic" in2="effect1_dropShadow_90_1256" result="shape"/>
</filter>
<filter id="filter3_d_90_1256" x="65.054" y="191.545" width="172.74" height="30.3636" filterUnits="userSpaceOnUse" color-interpolation-filters="sRGB">
<feFlood flood-opacity="0" result="BackgroundImageFix"/>
<feColorMatrix in="SourceAlpha" type="matrix" values="0 0 0 0 0 0 0 0 0 0 0 0 0 0 0 0 0 0 127 0" result="hardAlpha"/>
<feOffset dy="4"/>
<feGaussianBlur stdDeviation="2"/>
<feComposite in2="hardAlpha" operator="out"/>
<feColorMatrix type="matrix" values="0 0 0 0 0 0 0 0 0 0 0 0 0 0 0 0 0 0 0.08 0"/>
<feBlend mode="normal" in2="BackgroundImageFix" result="effect1_dropShadow_90_1256"/>
<feBlend mode="normal" in="SourceGraphic" in2="effect1_dropShadow_90_1256" result="shape"/>
</filter>
<filter id="filter4_d_90_1256" x="57" y="85" width="15" height="15" filterUnits="userSpaceOnUse" color-interpolation-filters="sRGB">
<feFlood flood-opacity="0" result="BackgroundImageFix"/>
<feColorMatrix in="SourceAlpha" type="matrix" values="0 0 0 0 0 0 0 0 0 0 0 0 0 0 0 0 0 0 127 0" result="hardAlpha"/>
<feOffset dy="4"/>
<feGaussianBlur stdDeviation="2"/>
<feComposite in2="hardAlpha" operator="out"/>
<feColorMatrix type="matrix" values="0 0 0 0 0 0 0 0 0 0 0 0 0 0 0 0 0 0 0.05 0"/>
<feBlend mode="normal" in2="BackgroundImageFix" result="effect1_dropShadow_90_1256"/>
<feBlend mode="normal" in="SourceGraphic" in2="effect1_dropShadow_90_1256" result="shape"/>
</filter>
<filter id="filter5_d_90_1256" x="256" y="152" width="15" height="15" filterUnits="userSpaceOnUse" color-interpolation-filters="sRGB">
<feFlood flood-opacity="0" result="BackgroundImageFix"/>
<feColorMatrix in="SourceAlpha" type="matrix" values="0 0 0 0 0 0 0 0 0 0 0 0 0 0 0 0 0 0 127 0" result="hardAlpha"/>
<feOffset dy="4"/>
<feGaussianBlur stdDeviation="2"/>
<feComposite in2="hardAlpha" operator="out"/>
<feColorMatrix type="matrix" values="0 0 0 0 0 0 0 0 0 0 0 0 0 0 0 0 0 0 0.05 0"/>
<feBlend mode="normal" in2="BackgroundImageFix" result="effect1_dropShadow_90_1256"/>
<feBlend mode="normal" in="SourceGraphic" in2="effect1_dropShadow_90_1256" result="shape"/>
</filter>
<filter id="filter6_d_90_1256" x="229" y="12" width="15" height="15" filterUnits="userSpaceOnUse" color-interpolation-filters="sRGB">
<feFlood flood-opacity="0" result="BackgroundImageFix"/>
<feColorMatrix in="SourceAlpha" type="matrix" values="0 0 0 0 0 0 0 0 0 0 0 0 0 0 0 0 0 0 127 0" result="hardAlpha"/>
<feOffset dy="4"/>
<feGaussianBlur stdDeviation="2"/>
<feComposite in2="hardAlpha" operator="out"/>
<feColorMatrix type="matrix" values="0 0 0 0 0 0 0 0 0 0 0 0 0 0 0 0 0 0 0.05 0"/>
<feBlend mode="normal" in2="BackgroundImageFix" result="effect1_dropShadow_90_1256"/>
<feBlend mode="normal" in="SourceGraphic" in2="effect1_dropShadow_90_1256" result="shape"/>
</filter>
<filter id="filter7_d_90_1256" x="227" y="54" width="23" height="23" filterUnits="userSpaceOnUse" color-interpolation-filters="sRGB">
<feFlood flood-opacity="0" result="BackgroundImageFix"/>
<feColorMatrix in="SourceAlpha" type="matrix" values="0 0 0 0 0 0 0 0 0 0 0 0 0 0 0 0 0 0 127 0" result="hardAlpha"/>
<feOffset dy="4"/>
<feGaussianBlur stdDeviation="2"/>
<feComposite in2="hardAlpha" operator="out"/>
<feColorMatrix type="matrix" values="0 0 0 0 0 0 0 0 0 0 0 0 0 0 0 0 0 0 0.05 0"/>
<feBlend mode="normal" in2="BackgroundImageFix" result="effect1_dropShadow_90_1256"/>
<feBlend mode="normal" in="SourceGraphic" in2="effect1_dropShadow_90_1256" result="shape"/>
</filter>
<filter id="filter8_d_90_1256" x="70" y="134" width="23" height="23" filterUnits="userSpaceOnUse" color-interpolation-filters="sRGB">
<feFlood flood-opacity="0" result="BackgroundImageFix"/>
<feColorMatrix in="SourceAlpha" type="matrix" values="0 0 0 0 0 0 0 0 0 0 0 0 0 0 0 0 0 0 127 0" result="hardAlpha"/>
<feOffset dy="4"/>
<feGaussianBlur stdDeviation="2"/>
<feComposite in2="hardAlpha" operator="out"/>
<feColorMatrix type="matrix" values="0 0 0 0 0 0 0 0 0 0 0 0 0 0 0 0 0 0 0.05 0"/>
<feBlend mode="normal" in2="BackgroundImageFix" result="effect1_dropShadow_90_1256"/>
<feBlend mode="normal" in="SourceGraphic" in2="effect1_dropShadow_90_1256" result="shape"/>
</filter>
<filter id="filter9_d_90_1256" x="71" y="17" width="23" height="23" filterUnits="userSpaceOnUse" color-interpolation-filters="sRGB">
<feFlood flood-opacity="0" result="BackgroundImageFix"/>
<feColorMatrix in="SourceAlpha" type="matrix" values="0 0 0 0 0 0 0 0 0 0 0 0 0 0 0 0 0 0 127 0" result="hardAlpha"/>
<feOffset dy="4"/>
<feGaussianBlur stdDeviation="2"/>
<feComposite in2="hardAlpha" operator="out"/>
<feColorMatrix type="matrix" values="0 0 0 0 0 0 0 0 0 0 0 0 0 0 0 0 0 0 0.05 0"/>
<feBlend mode="normal" in2="BackgroundImageFix" result="effect1_dropShadow_90_1256"/>
<feBlend mode="normal" in="SourceGraphic" in2="effect1_dropShadow_90_1256" result="shape"/>
</filter>
<filter id="filter10_d_90_1256" x="89" y="65" width="18" height="18" filterUnits="userSpaceOnUse" color-interpolation-filters="sRGB">
<feFlood flood-opacity="0" result="BackgroundImageFix"/>
<feColorMatrix in="SourceAlpha" type="matrix" values="0 0 0 0 0 0 0 0 0 0 0 0 0 0 0 0 0 0 127 0" result="hardAlpha"/>
<feOffset dy="4"/>
<feGaussianBlur stdDeviation="2"/>
<feComposite in2="hardAlpha" operator="out"/>
<feColorMatrix type="matrix" values="0 0 0 0 0 0 0 0 0 0 0 0 0 0 0 0 0 0 0.05 0"/>
<feBlend mode="normal" in2="BackgroundImageFix" result="effect1_dropShadow_90_1256"/>
<feBlend mode="normal" in="SourceGraphic" in2="effect1_dropShadow_90_1256" result="shape"/>
</filter>
</defs>
</svg>
