<svg width="24" height="16" viewBox="0 0 24 16" fill="none" xmlns="http://www.w3.org/2000/svg">
<path fill-rule="evenodd" clip-rule="evenodd" d="M23.375 7.99999C23.375 7.7845 23.2894 7.57784 23.137 7.42547C22.9846 7.27309 22.778 7.18749 22.5625 7.18749H3.39886L8.51274 2.07524C8.58828 1.9997 8.6482 1.91001 8.68909 1.81131C8.72997 1.71261 8.75101 1.60682 8.75101 1.49999C8.75101 1.39315 8.72997 1.28737 8.68909 1.18867C8.6482 1.08996 8.58828 1.00028 8.51274 0.924739C8.43719 0.849196 8.34751 0.789272 8.24881 0.748388C8.15011 0.707505 8.04432 0.686462 7.93749 0.686462C7.83065 0.686462 7.72487 0.707505 7.62616 0.748388C7.52746 0.789272 7.43778 0.849196 7.36224 0.924739L0.862238 7.42474C0.786572 7.50021 0.72654 7.58987 0.68558 7.68858C0.644619 7.7873 0.623535 7.89312 0.623535 7.99999C0.623535 8.10686 0.644619 8.21268 0.68558 8.31139C0.72654 8.4101 0.786572 8.49976 0.862238 8.57524L7.36224 15.0752C7.43778 15.1508 7.52746 15.2107 7.62616 15.2516C7.72487 15.2925 7.83065 15.3135 7.93749 15.3135C8.04432 15.3135 8.15011 15.2925 8.24881 15.2516C8.34751 15.2107 8.43719 15.1508 8.51274 15.0752C8.58828 14.9997 8.6482 14.91 8.68909 14.8113C8.72997 14.7126 8.75101 14.6068 8.75101 14.5C8.75101 14.3932 8.72997 14.2874 8.68909 14.1887C8.6482 14.09 8.58828 14.0003 8.51274 13.9247L3.39886 8.81249H22.5625C22.778 8.81249 22.9846 8.72689 23.137 8.57451C23.2894 8.42214 23.375 8.21548 23.375 7.99999Z" fill="black"/>
</svg>
