<svg width="266" height="291" viewBox="0 0 266 291" fill="none" xmlns="http://www.w3.org/2000/svg">
<circle cx="132.5" cy="129.5" r="91.5" fill="#DB66E4"/>
<path d="M50.86 271.04C50.2867 271.04 49.7733 271.153 49.32 271.38C48.88 271.607 48.5067 271.933 48.2 272.36C47.8933 272.773 47.66 273.28 47.5 273.88C47.3533 274.48 47.28 275.153 47.28 275.9C47.28 276.913 47.4 277.78 47.64 278.5C47.8933 279.207 48.2867 279.747 48.82 280.12C49.3533 280.493 50.0333 280.68 50.86 280.68C51.4467 280.68 52.0267 280.613 52.6 280.48C53.1867 280.347 53.82 280.16 54.5 279.92V282.46C53.8733 282.713 53.2533 282.9 52.64 283.02C52.0267 283.14 51.34 283.2 50.58 283.2C49.1133 283.2 47.9 282.9 46.94 282.3C45.9933 281.687 45.2933 280.833 44.84 279.74C44.3867 278.633 44.16 277.347 44.16 275.88C44.16 274.8 44.3067 273.813 44.6 272.92C44.8933 272.013 45.32 271.233 45.88 270.58C46.4533 269.927 47.1533 269.42 47.98 269.06C48.82 268.7 49.78 268.52 50.86 268.52C51.5667 268.52 52.2733 268.613 52.98 268.8C53.7 268.973 54.3867 269.213 55.04 269.52L54.06 271.98C53.5267 271.727 52.9867 271.507 52.44 271.32C51.9067 271.133 51.38 271.04 50.86 271.04ZM72.9705 274.94C72.9705 275.527 72.7838 276.027 72.4105 276.44C72.0505 276.853 71.5105 277.12 70.7905 277.24V277.32C71.5505 277.413 72.1571 277.673 72.6105 278.1C73.0771 278.527 73.3105 279.073 73.3105 279.74C73.3105 280.207 73.2171 280.64 73.0305 281.04C72.8571 281.44 72.5771 281.787 72.1905 282.08C71.8038 282.373 71.3038 282.6 70.6905 282.76C70.0905 282.92 69.3571 283 68.4905 283H63.2905V272.08H68.4905C69.3438 272.08 70.1038 272.173 70.7705 272.36C71.4505 272.533 71.9838 272.827 72.3705 273.24C72.7705 273.653 72.9705 274.22 72.9705 274.94ZM70.2305 279.58C70.2305 279.153 70.0638 278.847 69.7305 278.66C69.3971 278.46 68.8971 278.36 68.2305 278.36H66.2705V280.94H68.2905C68.8505 280.94 69.3105 280.84 69.6705 280.64C70.0438 280.427 70.2305 280.073 70.2305 279.58ZM69.9505 275.18C69.9505 274.833 69.8171 274.58 69.5505 274.42C69.2838 274.26 68.8905 274.18 68.3705 274.18H66.2705V276.34H68.0305C68.6571 276.34 69.1305 276.253 69.4505 276.08C69.7838 275.893 69.9505 275.593 69.9505 275.18ZM85.7886 277.52C85.7886 278.427 85.6619 279.233 85.4086 279.94C85.1686 280.647 84.8153 281.247 84.3486 281.74C83.8953 282.22 83.3419 282.587 82.6886 282.84C82.0353 283.08 81.2953 283.2 80.4686 283.2C79.7086 283.2 79.0019 283.08 78.3486 282.84C77.7086 282.587 77.1553 282.22 76.6886 281.74C76.2219 281.247 75.8553 280.647 75.5886 279.94C75.3353 279.233 75.2086 278.427 75.2086 277.52C75.2086 276.307 75.4219 275.287 75.8486 274.46C76.2753 273.62 76.8886 272.98 77.6886 272.54C78.4886 272.1 79.4353 271.88 80.5286 271.88C81.5553 271.88 82.4619 272.1 83.2486 272.54C84.0353 272.98 84.6553 273.62 85.1086 274.46C85.5619 275.287 85.7886 276.307 85.7886 277.52ZM78.2486 277.52C78.2486 278.24 78.3219 278.847 78.4686 279.34C78.6286 279.82 78.8753 280.187 79.2086 280.44C79.5419 280.68 79.9753 280.8 80.5086 280.8C81.0419 280.8 81.4686 280.68 81.7886 280.44C82.1219 280.187 82.3619 279.82 82.5086 279.34C82.6686 278.847 82.7486 278.24 82.7486 277.52C82.7486 276.8 82.6686 276.2 82.5086 275.72C82.3619 275.24 82.1219 274.88 81.7886 274.64C81.4553 274.4 81.0219 274.28 80.4886 274.28C79.7019 274.28 79.1286 274.553 78.7686 275.1C78.4219 275.633 78.2486 276.44 78.2486 277.52ZM92.2314 271.88C93.0181 271.88 93.7514 271.987 94.4314 272.2C95.1247 272.4 95.6781 272.713 96.0914 273.14C96.5181 273.567 96.7314 274.113 96.7314 274.78C96.7314 275.433 96.5314 275.953 96.1314 276.34C95.7447 276.727 95.2181 277.007 94.5514 277.18V277.28C95.0181 277.387 95.4381 277.54 95.8114 277.74C96.1847 277.927 96.4781 278.187 96.6914 278.52C96.9181 278.84 97.0314 279.273 97.0314 279.82C97.0314 280.42 96.8381 280.98 96.4514 281.5C96.0781 282.007 95.4914 282.42 94.6914 282.74C93.9047 283.047 92.8914 283.2 91.6514 283.2C91.0647 283.2 90.5114 283.173 89.9914 283.12C89.4714 283.067 88.9981 282.993 88.5714 282.9C88.1447 282.793 87.7714 282.667 87.4514 282.52V280.06C87.9047 280.273 88.4581 280.467 89.1114 280.64C89.7781 280.813 90.4847 280.9 91.2314 280.9C91.7781 280.9 92.2647 280.86 92.6914 280.78C93.1314 280.7 93.4781 280.567 93.7314 280.38C93.9981 280.193 94.1314 279.947 94.1314 279.64C94.1314 279.347 94.0181 279.107 93.7914 278.92C93.5647 278.72 93.2247 278.573 92.7714 278.48C92.3181 278.387 91.7381 278.34 91.0314 278.34H89.8714V276.28H90.9714C91.9581 276.28 92.7181 276.2 93.2514 276.04C93.7981 275.88 94.0714 275.58 94.0714 275.14C94.0714 274.793 93.8981 274.533 93.5514 274.36C93.2047 274.173 92.6381 274.08 91.8514 274.08C91.3314 274.08 90.7647 274.14 90.1514 274.26C89.5381 274.38 88.9581 274.553 88.4114 274.78L87.5314 272.7C88.1581 272.46 88.8447 272.267 89.5914 272.12C90.3381 271.96 91.2181 271.88 92.2314 271.88ZM109.025 274.94C109.025 275.527 108.838 276.027 108.465 276.44C108.105 276.853 107.565 277.12 106.845 277.24V277.32C107.605 277.413 108.212 277.673 108.665 278.1C109.132 278.527 109.365 279.073 109.365 279.74C109.365 280.207 109.272 280.64 109.085 281.04C108.912 281.44 108.632 281.787 108.245 282.08C107.858 282.373 107.358 282.6 106.745 282.76C106.145 282.92 105.412 283 104.545 283H99.3452V272.08H104.545C105.398 272.08 106.158 272.173 106.825 272.36C107.505 272.533 108.038 272.827 108.425 273.24C108.825 273.653 109.025 274.22 109.025 274.94ZM106.285 279.58C106.285 279.153 106.118 278.847 105.785 278.66C105.452 278.46 104.952 278.36 104.285 278.36H102.325V280.94H104.345C104.905 280.94 105.365 280.84 105.725 280.64C106.098 280.427 106.285 280.073 106.285 279.58ZM106.005 275.18C106.005 274.833 105.872 274.58 105.605 274.42C105.338 274.26 104.945 274.18 104.425 274.18H102.325V276.34H104.085C104.712 276.34 105.185 276.253 105.505 276.08C105.838 275.893 106.005 275.593 106.005 275.18ZM118.003 271.88C119.23 271.88 120.223 272.36 120.983 273.32C121.743 274.267 122.123 275.667 122.123 277.52C122.123 278.76 121.943 279.807 121.583 280.66C121.223 281.5 120.73 282.133 120.103 282.56C119.477 282.987 118.75 283.2 117.923 283.2C117.403 283.2 116.95 283.133 116.563 283C116.19 282.867 115.87 282.693 115.603 282.48C115.337 282.267 115.103 282.04 114.903 281.8H114.743C114.797 282.053 114.837 282.32 114.863 282.6C114.89 282.867 114.903 283.133 114.903 283.4V287.8H111.923V272.08H114.343L114.763 273.5H114.903C115.103 273.207 115.343 272.94 115.623 272.7C115.903 272.447 116.237 272.247 116.623 272.1C117.023 271.953 117.483 271.88 118.003 271.88ZM117.043 274.26C116.523 274.26 116.11 274.367 115.803 274.58C115.497 274.793 115.27 275.12 115.123 275.56C114.99 275.987 114.917 276.527 114.903 277.18V277.5C114.903 278.207 114.97 278.807 115.103 279.3C115.237 279.78 115.463 280.147 115.783 280.4C116.103 280.653 116.537 280.78 117.083 280.78C117.537 280.78 117.91 280.653 118.203 280.4C118.497 280.147 118.717 279.773 118.863 279.28C119.01 278.787 119.083 278.187 119.083 277.48C119.083 276.413 118.917 275.613 118.583 275.08C118.263 274.533 117.75 274.26 117.043 274.26ZM129.06 271.86C130.526 271.86 131.646 272.18 132.42 272.82C133.206 273.447 133.6 274.413 133.6 275.72V283H131.52L130.94 281.52H130.86C130.553 281.907 130.233 282.227 129.9 282.48C129.58 282.733 129.206 282.913 128.78 283.02C128.366 283.14 127.853 283.2 127.24 283.2C126.6 283.2 126.02 283.08 125.5 282.84C124.993 282.587 124.593 282.207 124.3 281.7C124.006 281.18 123.86 280.527 123.86 279.74C123.86 278.58 124.266 277.727 125.08 277.18C125.893 276.62 127.113 276.313 128.74 276.26L130.64 276.2V275.72C130.64 275.147 130.486 274.727 130.18 274.46C129.886 274.193 129.473 274.06 128.94 274.06C128.406 274.06 127.886 274.14 127.38 274.3C126.873 274.447 126.366 274.633 125.86 274.86L124.88 272.84C125.466 272.533 126.113 272.293 126.82 272.12C127.54 271.947 128.286 271.86 129.06 271.86ZM129.48 277.98C128.52 278.007 127.853 278.18 127.48 278.5C127.106 278.82 126.92 279.24 126.92 279.76C126.92 280.213 127.053 280.54 127.32 280.74C127.586 280.927 127.933 281.02 128.36 281.02C129 281.02 129.54 280.833 129.98 280.46C130.42 280.073 130.64 279.533 130.64 278.84V277.94L129.48 277.98ZM152.91 272.08V280.82H154.51V286.92H151.83V283H136.65V272.08H139.63V280.76H143.29V272.08H146.27V280.76H149.93V272.08H152.91ZM160.857 271.88C161.87 271.88 162.737 272.073 163.457 272.46C164.19 272.847 164.757 273.407 165.157 274.14C165.557 274.873 165.757 275.773 165.757 276.84V278.28H158.717C158.744 279.12 158.99 279.78 159.457 280.26C159.937 280.74 160.597 280.98 161.437 280.98C162.144 280.98 162.784 280.913 163.357 280.78C163.93 280.633 164.524 280.413 165.137 280.12V282.42C164.604 282.687 164.037 282.88 163.437 283C162.85 283.133 162.137 283.2 161.297 283.2C160.204 283.2 159.237 283 158.397 282.6C157.557 282.187 156.897 281.567 156.417 280.74C155.937 279.913 155.697 278.873 155.697 277.62C155.697 276.34 155.91 275.28 156.337 274.44C156.777 273.587 157.384 272.947 158.157 272.52C158.93 272.093 159.83 271.88 160.857 271.88ZM160.877 274C160.304 274 159.824 274.187 159.437 274.56C159.064 274.933 158.844 275.513 158.777 276.3H162.957C162.957 275.86 162.877 275.467 162.717 275.12C162.57 274.773 162.344 274.5 162.037 274.3C161.73 274.1 161.344 274 160.877 274ZM171.153 272.08V276.28H175.313V272.08H178.293V283H175.313V278.5H171.153V283H168.173V272.08H171.153ZM184.295 276.4C184.295 276.627 184.282 276.907 184.255 277.24C184.242 277.573 184.222 277.913 184.195 278.26C184.182 278.607 184.162 278.913 184.135 279.18C184.109 279.447 184.089 279.633 184.075 279.74L189.115 272.08H192.695V283H189.815V278.64C189.815 278.28 189.829 277.887 189.855 277.46C189.882 277.02 189.909 276.613 189.935 276.24C189.975 275.853 190.002 275.56 190.015 275.36L184.995 283H181.415V272.08H184.295V276.4ZM200.31 271.88C201.323 271.88 202.19 272.073 202.91 272.46C203.643 272.847 204.21 273.407 204.61 274.14C205.01 274.873 205.21 275.773 205.21 276.84V278.28H198.17C198.197 279.12 198.443 279.78 198.91 280.26C199.39 280.74 200.05 280.98 200.89 280.98C201.597 280.98 202.237 280.913 202.81 280.78C203.383 280.633 203.977 280.413 204.59 280.12V282.42C204.057 282.687 203.49 282.88 202.89 283C202.303 283.133 201.59 283.2 200.75 283.2C199.657 283.2 198.69 283 197.85 282.6C197.01 282.187 196.35 281.567 195.87 280.74C195.39 279.913 195.15 278.873 195.15 277.62C195.15 276.34 195.363 275.28 195.79 274.44C196.23 273.587 196.837 272.947 197.61 272.52C198.383 272.093 199.283 271.88 200.31 271.88ZM200.33 274C199.757 274 199.277 274.187 198.89 274.56C198.517 274.933 198.297 275.513 198.23 276.3H202.41C202.41 275.86 202.33 275.467 202.17 275.12C202.023 274.773 201.797 274.5 201.49 274.3C201.183 274.1 200.797 274 200.33 274ZM221.386 272.08V283H218.606V277.64C218.606 277.107 218.613 276.587 218.626 276.08C218.653 275.573 218.686 275.107 218.726 274.68H218.666L215.646 283H213.406L210.346 274.66H210.266C210.32 275.1 210.353 275.573 210.366 276.08C210.393 276.573 210.406 277.12 210.406 277.72V283H207.626V272.08H211.846L214.566 279.48L217.326 272.08H221.386Z" fill="black"/>
<circle cx="90" cy="14" r="7" fill="#DB66E4"/>
<circle cx="57" cy="224" r="7" fill="#DB66E4"/>
<circle cx="20" cy="7" r="7" fill="#DB66E4"/>
<circle cx="7" cy="182" r="7" fill="#DB66E4"/>
<circle cx="259" cy="121" r="7" fill="#DB66E4"/>
<path d="M225.5 38L227.857 45.2553H235.486L229.314 49.7394L231.672 56.9947L225.5 52.5106L219.328 56.9947L221.686 49.7394L215.514 45.2553H223.143L225.5 38Z" fill="#DB66E4"/>
<path d="M23.5 93L25.8574 100.255H33.4861L27.3143 104.739L29.6717 111.995L23.5 107.511L17.3283 111.995L19.6857 104.739L13.5139 100.255H21.1426L23.5 93Z" fill="#DB66E4"/>
<path d="M216.5 210L218.857 217.255H226.486L220.314 221.739L222.672 228.995L216.5 224.511L210.328 228.995L212.686 221.739L206.514 217.255H214.143L216.5 210Z" fill="#DB66E4"/>
<path d="M127.589 96.9908L109.708 103.728C105.588 105.268 102.219 110.142 102.219 114.513V141.138C102.219 145.366 105.014 150.92 108.418 153.464L123.827 164.967C128.879 168.765 137.193 168.765 142.245 164.967L157.653 153.464C161.058 150.92 163.853 145.366 163.853 141.138V114.513C163.853 110.106 160.484 105.233 156.363 103.692L138.483 96.9908C135.437 95.88 130.563 95.88 127.589 96.9908Z" fill="white" stroke="#DB66E4" stroke-width="1.5" stroke-linecap="round" stroke-linejoin="round"/>
<path d="M122.429 131.534L128.198 137.303L143.607 121.895" stroke="#DB66E4" stroke-width="1.5" stroke-linecap="round" stroke-linejoin="round"/>
</svg>
